<svg width="1280" height="1280" viewBox="0 0 1280 1280" fill="none" xmlns="http://www.w3.org/2000/svg">
<g clip-path="url(#clip0_61_4726)">
<path d="M751.74 40.1705L757.986 17.2554L766.154 19.482C767.937 19.968 769.326 20.6951 770.32 21.6633C771.314 22.6315 771.948 23.7581 772.223 25.043C772.5 26.3206 772.447 27.6605 772.065 29.0628C771.681 30.4726 771.04 31.6604 770.144 32.6261C769.257 33.5864 768.135 34.2341 766.777 34.5693C765.429 34.899 763.868 34.8219 762.092 34.3379L756.476 32.8068L757.275 29.8752L762.578 31.321C763.705 31.628 764.671 31.6832 765.478 31.4865C766.287 31.2823 766.948 30.8855 767.462 30.2962C767.975 29.7068 768.349 28.9795 768.585 28.1142C768.821 27.249 768.866 26.4359 768.721 25.6751C768.576 24.9143 768.201 24.2471 767.596 23.6735C766.999 23.1019 766.125 22.6596 764.977 22.3464L760.635 21.163L755.197 41.1129L751.74 40.1705ZM771.894 45.6645L778.14 22.7494L786.308 24.976C788.084 25.46 789.474 26.1674 790.478 27.0983C791.49 28.0313 792.139 29.1179 792.426 30.3581C792.715 31.5908 792.668 32.9121 792.283 34.3219C791.901 35.7243 791.27 36.8785 790.39 37.7845C789.519 38.6851 788.414 39.2694 787.075 39.5375C785.743 39.8075 784.19 39.7005 782.414 39.2166L776.227 37.5299L777.038 34.5536L782.912 36.1549C784.031 36.4599 784.985 36.5476 785.774 36.418C786.57 36.2904 787.215 35.9656 787.71 35.4434C788.205 34.9212 788.57 34.2312 788.803 33.3733C789.039 32.508 789.076 31.7126 788.913 30.9871C788.758 30.2636 788.371 29.6374 787.754 29.1085C787.147 28.5743 786.272 28.1516 785.131 27.8405L780.79 26.657L775.351 46.607L771.894 45.6645ZM786.024 38.4096L788.867 50.2916L784.929 49.2179L782.198 37.3664L786.024 38.4096ZM792.202 51.2005L798.448 28.2854L812.815 32.2018L812.004 35.1781L801.095 32.2042L799.191 39.1861L809.351 41.9557L808.543 44.9207L798.383 42.1512L796.471 49.1667L807.514 52.1772L806.703 55.1535L792.202 51.2005ZM828.291 42.8874C828.46 41.7957 828.191 40.8409 827.485 40.0232C826.78 39.1981 825.771 38.6065 824.458 38.2487C823.519 37.9925 822.665 37.92 821.897 38.0313C821.132 38.1351 820.489 38.3925 819.968 38.8035C819.457 39.2091 819.112 39.7364 818.936 40.3853C818.787 40.9299 818.786 41.4344 818.932 41.8988C819.085 42.3654 819.334 42.7898 819.678 43.1722C820.032 43.5492 820.427 43.8933 820.863 44.2045C821.302 44.5082 821.729 44.777 822.146 45.0109L824.225 46.2028C824.908 46.5811 825.591 47.0279 826.276 47.5432C826.961 48.0584 827.564 48.6554 828.084 49.3341C828.604 50.0129 828.965 50.7764 829.166 51.6246C829.375 52.475 829.339 53.4148 829.059 54.4442C828.705 55.7421 828.055 56.8031 827.109 57.6271C826.171 58.4531 824.988 58.9842 823.562 59.2204C822.142 59.4585 820.538 59.3336 818.748 58.8456C817.032 58.3779 815.622 57.701 814.517 56.8148C813.412 55.9287 812.642 54.8893 812.206 53.6965C811.771 52.4963 811.705 51.1961 812.007 49.7958L815.475 50.7413C815.317 51.5876 815.397 52.3508 815.717 53.0309C816.046 53.7056 816.543 54.2778 817.208 54.7477C817.883 55.2121 818.664 55.5653 819.552 55.8073C820.529 56.0736 821.44 56.1576 822.284 56.0592C823.138 55.9554 823.86 55.6874 824.45 55.2554C825.043 54.8159 825.441 54.2232 825.644 53.4773C825.829 52.7985 825.787 52.1899 825.517 51.6515C825.254 51.1152 824.834 50.6158 824.254 50.1534C823.683 49.693 823.016 49.2429 822.254 48.8029L819.748 47.3263C818.049 46.3263 816.795 45.195 815.985 43.9325C815.183 42.672 814.999 41.2436 815.434 39.6473C815.794 38.327 816.467 37.2721 817.451 36.4827C818.436 35.6933 819.614 35.193 820.985 34.982C822.359 34.7635 823.815 34.8637 825.351 35.2826C826.903 35.7055 828.197 36.3509 829.235 37.2188C830.28 38.0886 831.015 39.0945 831.441 40.2364C831.869 41.3708 831.931 42.5574 831.625 43.7964L828.291 42.8874ZM848.568 48.415C848.737 47.3233 848.469 46.3685 847.762 45.5508C847.057 44.7257 846.049 44.1342 844.736 43.7763C843.796 43.5201 842.942 43.4476 842.174 43.5589C841.409 43.6627 840.766 43.9202 840.245 44.3311C839.734 44.7367 839.39 45.264 839.213 45.9129C839.064 46.4575 839.063 46.962 839.209 47.4264C839.362 47.893 839.611 48.3174 839.956 48.6998C840.31 49.0768 840.705 49.4209 841.141 49.7321C841.579 50.0358 842.006 50.3047 842.423 50.5385L844.503 51.7304C845.185 52.1087 845.868 52.5555 846.553 53.0708C847.238 53.586 847.841 54.183 848.361 54.8618C848.881 55.5405 849.242 56.304 849.444 57.1522C849.653 58.0026 849.617 58.9424 849.336 59.9718C848.982 61.2697 848.332 62.3307 847.387 63.1547C846.448 63.9807 845.266 64.5118 843.839 64.748C842.42 64.9861 840.815 64.8612 839.025 64.3732C837.309 63.9055 835.899 63.2286 834.794 62.3424C833.689 61.4563 832.919 60.4169 832.483 59.2241C832.049 58.0239 831.982 56.7237 832.284 55.3234L835.753 56.2689C835.594 57.1152 835.675 57.8784 835.994 58.5585C836.323 59.2332 836.82 59.8054 837.485 60.2753C838.16 60.7397 838.941 61.0929 839.829 61.3349C840.806 61.6013 841.717 61.6852 842.561 61.5868C843.415 61.483 844.137 61.215 844.728 60.783C845.32 60.3435 845.718 59.7508 845.921 59.0049C846.106 58.3261 846.064 57.7175 845.794 57.1791C845.532 56.6428 845.111 56.1434 844.532 55.681C843.96 55.2206 843.293 54.7705 842.532 54.3305L840.025 52.8539C838.327 51.8539 837.072 50.7226 836.262 49.4601C835.46 48.1996 835.277 46.7712 835.712 45.1749C836.072 43.8546 836.744 42.7997 837.728 42.0103C838.713 41.2209 839.891 40.7206 841.263 40.5096C842.637 40.2911 844.092 40.3913 845.628 40.8102C847.18 41.2331 848.474 41.8785 849.512 42.7464C850.557 43.6162 851.293 44.6221 851.719 45.764C852.147 46.8984 852.208 48.0851 851.902 49.324L848.568 48.415ZM872.724 48.533L876.192 49.4785L872.084 64.5501C871.647 66.1539 870.883 67.4722 869.792 68.5051C868.703 69.5305 867.379 70.2114 865.821 70.548C864.265 70.877 862.569 70.7914 860.734 70.2912C858.907 69.793 857.406 69.0073 856.232 67.934C855.06 66.8532 854.265 65.5948 853.847 64.1586C853.432 62.715 853.442 61.1913 853.879 59.5875L857.988 44.516L861.445 45.4585L857.413 60.2503C857.13 61.2872 857.107 62.2704 857.342 63.2001C857.585 64.1317 858.065 64.9437 858.782 65.636C859.501 66.3208 860.438 66.8207 861.594 67.1359C862.758 67.4531 863.823 67.4991 864.79 67.2739C865.767 67.0432 866.589 66.5861 867.256 65.9025C867.93 65.2209 868.409 64.3617 868.692 63.3248L872.724 48.533ZM874.972 73.7639L881.219 50.8488L889.387 53.0754C891.162 53.5594 892.552 54.2668 893.557 55.1977C894.568 56.1306 895.218 57.2172 895.505 58.4574C895.794 59.6902 895.746 61.0115 895.362 62.4213C894.98 63.8236 894.348 64.9778 893.468 65.8839C892.598 66.7845 891.493 67.3688 890.154 67.6368C888.822 67.9069 887.268 67.7999 885.493 67.3159L879.306 65.6292L880.117 62.6529L885.991 64.2543C887.11 64.5593 888.064 64.647 888.852 64.5174C889.648 64.3898 890.294 64.0649 890.789 63.5427C891.284 63.0205 891.648 62.3305 891.882 61.4727C892.118 60.6074 892.155 59.812 891.992 59.0864C891.836 58.3629 891.45 57.7368 890.833 57.2079C890.225 56.6736 889.351 56.2509 888.21 55.9398L883.868 54.7564L878.43 74.7064L874.972 73.7639ZM889.103 66.5089L891.946 78.3909L888.008 77.3173L885.276 65.4658L889.103 66.5089ZM895.28 79.2999L901.527 56.3848L915.894 60.3012L915.082 63.2774L904.173 60.3036L902.27 67.2855L912.43 70.055L911.621 73.0201L901.462 70.2506L899.549 77.2661L910.593 80.2766L909.781 83.2528L895.28 79.2999Z" fill="white"/>
<path d="M357.594 79.89L356.597 76.9707L373.991 71.0285L374.989 73.9477L367.976 76.3434L374.657 95.9001L371.276 97.0548L364.596 77.4981L357.594 79.89ZM385.513 92.1913L377.835 69.7154L391.926 64.9016L392.924 67.8208L382.224 71.4762L384.563 78.3243L394.528 74.9202L395.521 77.8284L385.556 81.2326L387.907 88.1136L398.739 84.4133L399.736 87.3326L385.513 92.1913ZM396.456 63.3542L400.572 61.9483L413.696 76.9755L413.959 76.8855L415.146 56.9696L419.261 55.5637L426.94 78.0396L423.713 79.1419L418.157 62.8775L417.948 62.9487L416.865 81.4446L414.187 82.3593L402.01 68.3814L401.801 68.4526L407.361 84.7279L404.134 85.8301L396.456 63.3542ZM431.87 76.3554L424.192 53.8794L432.203 51.1426C433.952 50.5453 435.509 50.3686 436.875 50.6128C438.241 50.8569 439.399 51.4339 440.347 52.3437C441.292 53.2462 442 54.3852 442.47 55.7607C442.942 57.1435 443.078 58.486 442.878 59.7882C442.682 61.0806 442.116 62.2462 441.18 63.2849C440.249 64.3139 438.912 65.1258 437.171 65.7206L431.662 67.6026L430.68 64.7273L435.881 62.9502C436.986 62.5728 437.818 62.0764 438.375 61.461C438.931 60.8383 439.255 60.1391 439.35 59.3633C439.444 58.5876 439.347 57.7753 439.057 56.9266C438.767 56.0779 438.348 55.3793 437.802 54.8308C437.255 54.2823 436.57 53.9402 435.747 53.8045C434.932 53.6663 433.961 53.7897 432.835 54.1746L428.576 55.6292L435.261 75.1969L431.87 76.3554ZM451.638 69.6024L443.96 47.1264L458.051 42.3127L459.048 45.2319L448.348 48.8872L450.688 55.7354L460.653 52.3312L461.646 55.2395L451.681 58.6436L454.032 65.5247L464.864 61.8244L465.861 64.7436L451.638 69.6024ZM470.259 63.2412L462.581 40.7652L470.592 38.0284C472.334 37.4336 473.881 37.2399 475.235 37.4475C476.596 37.6525 477.743 38.188 478.676 39.0539C479.606 39.9126 480.308 41.0333 480.78 42.4161C481.25 43.7915 481.375 45.1011 481.154 46.3448C480.938 47.5787 480.351 48.6821 479.393 49.655C478.441 50.6254 477.095 51.408 475.354 52.0028L469.285 54.0761L468.288 51.1568L474.049 49.1886C475.147 48.8137 475.986 48.3514 476.566 47.8019C477.154 47.2499 477.506 46.6189 477.623 45.909C477.74 45.199 477.655 44.4234 477.367 43.582C477.077 42.7333 476.661 42.0542 476.12 41.5448C475.585 41.0329 474.914 40.731 474.107 40.6392C473.304 40.5376 472.343 40.678 471.224 41.0604L466.966 42.5151L473.65 62.0828L470.259 63.2412ZM477.89 49.3104L486.907 57.5539L483.044 58.8736L474.137 50.5926L477.89 49.3104ZM492.076 55.7881L488.477 57.0178L488.887 31.7788L492.805 30.4404L508.571 50.1533L504.972 51.383L492.334 35.1603L492.158 35.2202L492.076 55.7881ZM489.673 46.7803L501.35 42.7913L502.325 45.6447L490.648 49.6337L489.673 46.7803ZM501.372 30.7737L500.375 27.8545L517.769 21.9122L518.767 24.8315L511.754 27.2271L518.435 46.7838L515.055 47.9385L508.374 28.3818L501.372 30.7737ZM536.067 15.6616L539.469 14.4994L544.519 29.2822C545.056 30.8552 545.163 32.3752 544.839 33.8422C544.512 35.3018 543.798 36.6079 542.697 37.7603C541.593 38.9054 540.141 39.7854 538.341 40.4003C536.549 41.0126 534.865 41.2036 533.292 40.9732C531.715 40.7356 530.351 40.1393 529.2 39.1846C528.046 38.2225 527.201 36.9549 526.663 35.3819L521.613 20.5991L525.004 19.4407L529.961 33.9491C530.308 34.9661 530.84 35.7934 531.556 36.4311C532.28 37.0663 533.132 37.4695 534.114 37.6407C535.093 37.8046 536.15 37.6928 537.284 37.3054C538.425 36.9155 539.333 36.3562 540.007 35.6275C540.686 34.8889 541.111 34.0496 541.28 33.1095C541.456 32.1668 541.37 31.187 541.023 30.17L536.067 15.6616ZM552.077 35.2911L544.399 12.8152L552.411 10.0784C554.152 9.48352 555.699 9.28986 557.053 9.49741C558.414 9.70245 559.561 10.2379 560.494 11.1039C561.425 11.9625 562.126 13.0832 562.599 14.466C563.068 15.8415 563.193 17.151 562.973 18.3947C562.757 19.6286 562.17 20.732 561.211 21.7049C560.26 22.6753 558.914 23.4579 557.172 24.0528L551.103 26.126L550.106 23.2068L555.868 21.2385C556.965 20.8636 557.804 20.4014 558.384 19.8518C558.972 19.2998 559.324 18.6688 559.441 17.9589C559.558 17.249 559.473 16.4733 559.185 15.6319C558.896 14.7832 558.48 14.1042 557.938 13.5947C557.404 13.0828 556.733 12.781 555.925 12.6892C555.123 12.5876 554.161 12.7279 553.042 13.1104L548.784 14.565L555.468 34.1327L552.077 35.2911ZM559.708 21.3603L568.726 29.6038L564.863 30.9235L555.955 22.6425L559.708 21.3603ZM571.996 28.4866L564.318 6.01065L578.41 1.19687L579.407 4.11612L568.707 7.77144L571.046 14.6196L581.011 11.2154L582.004 14.1237L572.039 17.5278L574.39 24.4089L585.222 20.7086L586.219 23.6278L571.996 28.4866Z" fill="white"/>
<path d="M152.264 307.287L133.696 292.477L142.879 280.963L145.291 282.886L138.342 291.599L143.999 296.112L150.291 288.223L152.693 290.14L146.402 298.028L154.499 304.485L152.264 307.287ZM164.196 292.327L145.627 277.517L147.862 274.716L164.018 287.602L170.729 279.188L173.141 281.111L164.196 292.327ZM178.693 255.104C180.676 256.685 182.091 258.407 182.939 260.27C183.781 262.128 184.082 263.995 183.842 265.871C183.601 267.735 182.842 269.469 181.564 271.07C180.282 272.678 178.756 273.81 176.987 274.466C175.217 275.111 173.329 275.227 171.324 274.815C169.319 274.403 167.328 273.408 165.352 271.832C163.369 270.251 161.957 268.531 161.115 266.673C160.267 264.81 159.963 262.946 160.204 261.081C160.444 259.205 161.205 257.464 162.488 255.856C163.765 254.254 165.289 253.131 167.06 252.486C168.829 251.83 170.716 251.708 172.721 252.12C174.72 252.528 176.711 253.522 178.693 255.104ZM176.48 257.878C174.969 256.673 173.502 255.903 172.078 255.568C170.652 255.223 169.336 255.261 168.129 255.683C166.921 256.094 165.893 256.831 165.045 257.895C164.191 258.965 163.699 260.135 163.566 261.404C163.428 262.668 163.684 263.96 164.333 265.279C164.981 266.587 166.06 267.843 167.572 269.048C169.083 270.254 170.551 271.029 171.976 271.375C173.4 271.709 174.716 271.671 175.924 271.26C177.126 270.844 178.154 270.101 179.007 269.031C179.856 267.967 180.349 266.803 180.487 265.539C180.624 264.264 180.369 262.972 179.721 261.664C179.072 260.345 177.992 259.083 176.48 257.878ZM193.484 255.604L170.808 245.944L173.158 242.998L190.423 250.849L190.561 250.677L179.182 235.445L181.51 232.526L198.9 240.239L199.038 240.067L187.527 224.982L189.884 222.026L204.338 241.995L202.089 244.815L185.064 237.63L184.948 237.775L195.74 252.775L193.484 255.604Z" fill="white"/>
<path d="M6.4881 670.939C5.39022 671.063 4.53976 671.573 3.9367 672.47C3.32591 673.367 3.02051 674.496 3.02051 675.856C3.02051 676.83 3.17514 677.673 3.4844 678.384C3.78593 679.096 4.20344 679.649 4.73691 680.043C5.26265 680.429 5.86185 680.623 6.53449 680.623C7.09889 680.623 7.58598 680.491 7.99575 680.228C8.40552 679.958 8.74957 679.606 9.02791 679.173C9.29851 678.732 9.52659 678.261 9.71215 677.758C9.88997 677.256 10.0369 676.772 10.1528 676.309L10.7559 673.989C10.9415 673.231 11.1927 672.454 11.5097 671.658C11.8267 670.862 12.2442 670.123 12.7622 669.443C13.2802 668.763 13.922 668.214 14.6874 667.796C15.4528 667.371 16.369 667.158 17.4359 667.158C18.7812 667.158 19.9757 667.506 21.0195 668.202C22.0633 668.89 22.8867 669.891 23.4897 671.206C24.0928 672.512 24.3943 674.093 24.3943 675.949C24.3943 677.727 24.1121 679.266 23.5477 680.565C22.9833 681.864 22.1831 682.88 21.1471 683.615C20.1033 684.349 18.8663 684.755 17.4359 684.833V681.237C18.2941 681.168 19.0093 680.89 19.5814 680.402C20.1458 679.908 20.5672 679.277 20.8455 678.512C21.1161 677.739 21.2514 676.892 21.2514 675.972C21.2514 674.959 21.0929 674.059 20.776 673.27C20.4512 672.474 20.0028 671.847 19.4307 671.391C18.8508 670.935 18.1743 670.707 17.4011 670.707C16.6976 670.707 16.1216 670.908 15.6732 671.31C15.2247 671.704 14.8536 672.242 14.5598 672.922C14.266 673.595 14.007 674.356 13.7828 675.207L13.0174 678.013C12.4994 679.915 11.7378 681.423 10.7327 682.536C9.72761 683.642 8.39779 684.195 6.74324 684.195C5.37476 684.195 4.18024 683.824 3.15968 683.081C2.13912 682.339 1.34664 681.334 0.782238 680.066C0.210104 678.798 -0.0759622 677.368 -0.0759622 675.775C-0.0759622 674.167 0.206239 672.748 0.77064 671.519C1.33504 670.282 2.11206 669.308 3.10169 668.596C4.0836 667.885 5.2124 667.514 6.4881 667.483V670.939ZM24 661.061V664.865L0.248762 656.318V652.178L24 643.63V647.434L4.56295 654.149V654.335L24 661.061ZM14.699 660.423V648.084H17.7143V660.423H14.699ZM0.248762 640.2V635.851L18.7116 628.29V628.012L0.248762 620.45V616.101H24V619.511H6.81282V619.731L23.9652 626.736V629.566L6.80123 636.57V636.791H24V640.2H0.248762ZM24 610.891H0.248762V602.425C0.248762 600.577 0.585083 599.046 1.25773 597.833C1.93037 596.619 2.85042 595.71 4.01788 595.107C5.17761 594.504 6.48424 594.203 7.93776 594.203C9.39902 594.203 10.7134 594.508 11.8808 595.119C13.0406 595.722 13.9606 596.634 14.641 597.856C15.3136 599.07 15.65 600.597 15.65 602.437V608.259H12.6115V602.761C12.6115 601.594 12.4104 600.647 12.0084 599.92C11.5986 599.193 11.042 598.66 10.3384 598.32C9.63483 597.98 8.83462 597.809 7.93776 597.809C7.04091 597.809 6.24456 597.98 5.54872 598.32C4.85288 598.66 4.30781 599.197 3.9135 599.932C3.5192 600.659 3.32204 601.617 3.32204 602.808V607.308H24V610.891ZM24 590.002H0.248762V586.418H20.9151V575.656H24V590.002ZM24 571.568H0.248762V556.677H3.33364V567.984H10.5703V557.454H13.6436V567.984H20.9151V556.538H24V571.568ZM64 729.659H40.2488V721.193C40.2488 719.345 40.5851 717.814 41.2577 716.6C41.9304 715.387 42.8504 714.478 44.0179 713.875C45.1776 713.272 46.4842 712.97 47.9378 712.97C49.399 712.97 50.7134 713.276 51.8808 713.887C53.0406 714.49 53.9606 715.402 54.641 716.624C55.3136 717.837 55.65 719.364 55.65 721.205V727.026H52.6115V721.529C52.6115 720.362 52.4104 719.415 52.0084 718.688C51.5986 717.961 51.042 717.428 50.3384 717.088C49.6348 716.747 48.8346 716.577 47.9378 716.577C47.0409 716.577 46.2446 716.747 45.5487 717.088C44.8529 717.428 44.3078 717.965 43.9135 718.7C43.5192 719.426 43.322 720.385 43.322 721.576V726.075H64V729.659ZM64 708.769H40.2488V700.303C40.2488 698.463 40.5658 696.936 41.1997 695.722C41.8337 694.501 42.7113 693.589 43.8323 692.985C44.9457 692.382 46.233 692.081 47.6942 692.081C49.1477 692.081 50.4273 692.386 51.5329 692.997C52.6308 693.6 53.4851 694.512 54.0959 695.734C54.7067 696.948 55.0121 698.475 55.0121 700.315V706.728H51.9272V700.64C51.9272 699.48 51.761 698.537 51.4285 697.81C51.0961 697.075 50.6129 696.538 49.9789 696.198C49.3449 695.858 48.5833 695.688 47.6942 695.688C46.7974 695.688 46.0203 695.862 45.3632 696.21C44.706 696.55 44.2034 697.087 43.8555 697.822C43.4999 698.548 43.322 699.503 43.322 700.686V705.186H64V708.769ZM53.2841 697.045L64 691.176V695.259L53.2841 701.011V697.045ZM64 687.72H40.2488V672.829H43.3336V684.137H50.5703V673.606H53.6436V684.137H60.9151V672.69H64V687.72ZM64 668.043H40.2488V659.577C40.2488 657.729 40.5851 656.198 41.2577 654.984C41.9304 653.77 42.8504 652.862 44.0179 652.259C45.1776 651.656 46.4842 651.354 47.9378 651.354C49.399 651.354 50.7134 651.66 51.8808 652.27C53.0406 652.873 53.9606 653.786 54.641 655.007C55.3136 656.221 55.65 657.748 55.65 659.588V665.41H52.6115V659.913C52.6115 658.745 52.4104 657.798 52.0084 657.072C51.5986 656.345 51.042 655.811 50.3384 655.471C49.6348 655.131 48.8346 654.961 47.9378 654.961C47.0409 654.961 46.2446 655.131 45.5487 655.471C44.8529 655.811 44.3078 656.349 43.9135 657.083C43.5192 657.81 43.322 658.769 43.322 659.959V664.459H64V668.043ZM64 647.666V651.47L40.2488 642.923V638.783L64 630.235V634.039L44.563 640.754V640.94L64 647.666ZM54.699 647.028V634.689H57.7143V647.028H54.699ZM64 626.806H40.2488V618.34C40.2488 616.499 40.5658 614.972 41.1997 613.759C41.8337 612.537 42.7113 611.625 43.8323 611.022C44.9457 610.419 46.233 610.117 47.6942 610.117C49.1477 610.117 50.4273 610.422 51.5329 611.033C52.6308 611.636 53.4851 612.549 54.0959 613.77C54.7067 614.984 55.0121 616.511 55.0121 618.351V624.764H51.9272V618.676C51.9272 617.516 51.761 616.573 51.4285 615.846C51.0961 615.112 50.6129 614.574 49.9789 614.234C49.3449 613.894 48.5833 613.724 47.6942 613.724C46.7974 613.724 46.0203 613.898 45.3632 614.246C44.706 614.586 44.2034 615.123 43.8555 615.858C43.4999 616.584 43.322 617.539 43.322 618.722V623.222H64V626.806ZM53.2841 615.081L64 609.212V613.295L53.2841 619.047V615.081ZM64 603.75V607.554L40.2488 599.007V594.867L64 586.319V590.123L44.563 596.838V597.024L64 603.75ZM54.699 603.112V590.773H57.7143V603.112H54.699ZM43.3336 586.867H40.2488V568.486H43.3336V575.896H64V579.468H43.3336V586.867ZM40.2488 560.84H64V564.424H40.2488V560.84ZM52.1244 534.99C54.6603 534.99 56.8406 535.454 58.6652 536.382C60.4822 537.309 61.8816 538.581 62.8635 540.197C63.8376 541.805 64.3247 543.634 64.3247 545.683C64.3247 547.739 63.8376 549.575 62.8635 551.191C61.8816 552.799 60.4783 554.067 58.6537 554.995C56.829 555.923 54.6526 556.387 52.1244 556.387C49.5884 556.387 47.412 555.923 45.5951 554.995C43.7705 554.067 42.3711 552.799 41.3969 551.191C40.415 549.575 39.924 547.739 39.924 545.683C39.924 543.634 40.415 541.805 41.3969 540.197C42.3711 538.581 43.7705 537.309 45.5951 536.382C47.412 535.454 49.5884 534.99 52.1244 534.99ZM52.1244 538.539C50.1915 538.539 48.564 538.852 47.2419 539.478C45.9121 540.097 44.907 540.947 44.2266 542.029C43.5385 543.104 43.1945 544.322 43.1945 545.683C43.1945 547.051 43.5385 548.273 44.2266 549.347C44.907 550.422 45.9121 551.272 47.2419 551.899C48.564 552.517 50.1915 552.827 52.1244 552.827C54.0573 552.827 55.6886 552.517 57.0184 551.899C58.3405 551.272 59.3456 550.422 60.0337 549.347C60.7141 548.273 61.0543 547.051 61.0543 545.683C61.0543 544.322 60.7141 543.104 60.0337 542.029C59.3456 540.947 58.3405 540.097 57.0184 539.478C55.6886 538.852 54.0573 538.539 52.1244 538.539ZM40.2488 511.352H64V514.645L46.5809 526.718V526.938H64V530.522H40.2488V527.205L57.6911 515.121V514.9H40.2488V511.352Z" fill="white"/>
<path d="M148.023 1029.56C147.187 1030.29 146.774 1031.19 146.783 1032.27C146.786 1033.35 147.172 1034.46 147.941 1035.58C148.491 1036.38 149.095 1036.99 149.752 1037.4C150.403 1037.82 151.059 1038.04 151.722 1038.06C152.375 1038.09 152.978 1037.91 153.533 1037.53C153.999 1037.21 154.326 1036.82 154.516 1036.38C154.701 1035.92 154.786 1035.44 154.771 1034.92C154.745 1034.41 154.667 1033.89 154.536 1033.37C154.399 1032.85 154.247 1032.37 154.081 1031.92L153.268 1029.67C152.993 1028.94 152.761 1028.16 152.572 1027.32C152.384 1026.48 152.311 1025.64 152.354 1024.78C152.397 1023.93 152.616 1023.11 153.012 1022.34C153.403 1021.55 154.039 1020.86 154.919 1020.26C156.029 1019.5 157.211 1019.11 158.466 1019.09C159.716 1019.07 160.961 1019.43 162.201 1020.18C163.437 1020.91 164.579 1022.05 165.628 1023.58C166.632 1025.05 167.269 1026.48 167.537 1027.87C167.805 1029.26 167.72 1030.55 167.28 1031.74C166.834 1032.93 166.043 1033.97 164.906 1034.84L162.875 1031.87C163.543 1031.33 163.976 1030.7 164.173 1029.97C164.359 1029.25 164.351 1028.49 164.148 1027.7C163.934 1026.91 163.567 1026.13 163.048 1025.37C162.475 1024.54 161.836 1023.88 161.128 1023.41C160.411 1022.94 159.687 1022.68 158.957 1022.62C158.221 1022.57 157.534 1022.77 156.896 1023.21C156.315 1023.6 155.954 1024.09 155.811 1024.68C155.664 1025.26 155.661 1025.91 155.803 1026.64C155.941 1027.36 156.157 1028.13 156.453 1028.96L157.407 1031.71C158.055 1033.57 158.278 1035.25 158.078 1036.73C157.874 1038.21 157.089 1039.42 155.724 1040.36C154.595 1041.13 153.399 1041.5 152.138 1041.46C150.877 1041.43 149.655 1041.05 148.473 1040.32C147.284 1039.6 146.24 1038.58 145.34 1037.26C144.431 1035.94 143.862 1034.61 143.633 1033.27C143.4 1031.93 143.491 1030.69 143.905 1029.54C144.313 1028.4 145.035 1027.46 146.07 1026.71L148.023 1029.56ZM129.689 1013.84L127.657 1010.87L140.546 1002.04C141.917 1001.1 143.353 1000.59 144.853 1000.51C146.347 1000.43 147.797 1000.77 149.202 1001.53C150.601 1002.28 151.838 1003.44 152.913 1005.01C153.983 1006.58 154.618 1008.15 154.818 1009.73C155.012 1011.31 154.803 1012.78 154.191 1014.15C153.574 1015.52 152.579 1016.67 151.208 1017.61L138.319 1026.44L136.294 1023.48L148.944 1014.82C149.83 1014.21 150.485 1013.48 150.907 1012.61C151.325 1011.75 151.485 1010.82 151.387 1009.83C151.283 1008.84 150.892 1007.85 150.215 1006.86C149.533 1005.87 148.751 1005.14 147.868 1004.69C146.975 1004.23 146.052 1004.05 145.101 1004.14C144.146 1004.22 143.225 1004.56 142.338 1005.17L129.689 1013.84ZM144.309 993.15L124.713 1006.57L119.93 999.585C118.885 998.061 118.298 996.608 118.167 995.226C118.036 993.845 118.282 992.575 118.904 991.418C119.52 990.265 120.428 989.278 121.627 988.457C122.833 987.631 124.09 987.14 125.398 986.985C126.696 986.827 127.97 987.06 129.222 987.683C130.463 988.304 131.603 989.374 132.643 990.892L135.933 995.696L133.426 997.413L130.319 992.877C129.66 991.914 128.959 991.246 128.216 990.874C127.468 990.506 126.707 990.38 125.934 990.497C125.162 990.614 124.405 990.926 123.665 991.432C122.925 991.939 122.364 992.53 121.982 993.203C121.601 993.877 121.455 994.629 121.544 995.457C121.63 996.28 122.009 997.182 122.681 998.165L125.224 1001.88L142.284 990.193L144.309 993.15ZM132.506 975.914L112.91 989.335L104.495 977.049L107.041 975.306L113.43 984.635L119.4 980.546L113.45 971.858L115.986 970.122L121.936 978.81L127.935 974.701L121.468 965.257L124.013 963.514L132.506 975.914ZM121.387 959.679L101.791 973.1L97.0068 966.115C95.967 964.597 95.3658 963.158 95.2029 961.798C95.0357 960.432 95.2442 959.184 95.8284 958.053C96.4062 956.926 97.2979 955.95 98.5036 955.124C99.7028 954.303 100.931 953.832 102.188 953.711C103.435 953.588 104.655 953.858 105.85 954.521C107.039 955.177 108.154 956.264 109.194 957.783L112.818 963.074L110.273 964.817L106.832 959.794C106.177 958.837 105.507 958.153 104.822 957.741C104.132 957.323 103.43 957.152 102.715 957.23C102 957.307 101.275 957.597 100.542 958.1C99.8016 958.607 99.2588 959.189 98.9132 959.848C98.5632 960.5 98.4522 961.227 98.5802 962.03C98.6974 962.83 99.0903 963.718 99.7587 964.694L102.301 968.407L119.362 956.723L121.387 959.679ZM105.92 956.061L111.446 945.164L113.752 948.532L108.161 959.333L105.92 956.061ZM190.398 1018.02L192.442 1021C191.883 1021.56 191.468 1022.15 191.197 1022.8C190.927 1023.44 190.777 1024.11 190.749 1024.79C190.722 1025.48 190.814 1026.16 191.026 1026.84C191.234 1027.51 191.552 1028.16 191.98 1028.79C192.753 1029.91 193.73 1030.73 194.909 1031.24C196.084 1031.73 197.397 1031.86 198.848 1031.63C200.295 1031.39 201.809 1030.73 203.391 1029.64C204.986 1028.55 206.157 1027.37 206.904 1026.11C207.648 1024.84 207.994 1023.57 207.944 1022.29C207.894 1021.02 207.486 1019.82 206.722 1018.7C206.298 1018.08 205.813 1017.55 205.267 1017.11C204.711 1016.67 204.111 1016.34 203.469 1016.11C202.828 1015.88 202.16 1015.78 201.468 1015.79C200.765 1015.81 200.059 1015.97 199.351 1016.27L197.316 1013.28C198.388 1012.78 199.487 1012.48 200.611 1012.39C201.725 1012.29 202.82 1012.4 203.897 1012.71C204.962 1013.02 205.967 1013.52 206.91 1014.22C207.854 1014.91 208.695 1015.8 209.433 1016.87C210.595 1018.57 211.229 1020.36 211.334 1022.24C211.432 1024.12 210.991 1025.96 210.01 1027.75C209.024 1029.54 207.489 1031.15 205.403 1032.58C203.31 1034.01 201.253 1034.86 199.229 1035.12C197.2 1035.39 195.329 1035.13 193.616 1034.36C191.897 1033.58 190.459 1032.35 189.301 1030.66C188.589 1029.62 188.075 1028.55 187.759 1027.45C187.432 1026.34 187.309 1025.23 187.389 1024.11C187.463 1023 187.75 1021.93 188.25 1020.9C188.743 1019.87 189.459 1018.91 190.398 1018.02ZM201.198 1005.43L181.602 1018.85L176.819 1011.86C175.779 1010.34 175.177 1008.9 175.015 1007.54C174.847 1006.18 175.056 1004.93 175.64 1003.8C176.218 1002.67 177.11 1001.7 178.315 1000.87C179.515 1000.05 180.743 999.578 182 999.457C183.247 999.334 184.467 999.604 185.661 1000.27C186.851 1000.92 187.966 1002.01 189.006 1003.53L192.629 1008.82L190.084 1010.56L186.644 1005.54C185.989 1004.58 185.318 1003.9 184.634 1003.49C183.944 1003.07 183.242 1002.9 182.527 1002.98C181.811 1003.05 181.087 1003.34 180.353 1003.85C179.613 1004.35 179.071 1004.94 178.725 1005.59C178.375 1006.25 178.264 1006.97 178.392 1007.78C178.509 1008.58 178.902 1009.46 179.57 1010.44L182.113 1014.15L199.173 1002.47L201.198 1005.43ZM185.732 1001.81L191.257 990.91L193.564 994.278L187.973 1005.08L185.732 1001.81ZM167.684 998.523L187.28 985.102L189.304 988.059L169.708 1001.48L167.684 998.523ZM167.942 993.44L165.396 995.183L155.01 980.018L157.555 978.274L161.742 984.389L178.793 972.711L180.812 975.658L163.761 987.336L167.942 993.44ZM150.69 973.71L170.286 960.289L172.311 963.245L152.715 976.666L150.69 973.71ZM142.967 948.764L145.011 951.749C144.452 952.301 144.037 952.899 143.766 953.543C143.495 954.188 143.346 954.853 143.318 955.537C143.29 956.221 143.382 956.903 143.595 957.583C143.802 958.256 144.12 958.905 144.549 959.53C145.322 960.659 146.298 961.475 147.478 961.98C148.653 962.477 149.966 962.609 151.417 962.374C152.863 962.133 154.378 961.471 155.96 960.387C157.554 959.295 158.725 958.118 159.473 956.857C160.216 955.588 160.563 954.316 160.513 953.038C160.462 951.761 160.055 950.564 159.29 949.447C158.867 948.829 158.382 948.299 157.836 947.857C157.279 947.414 156.68 947.079 156.038 946.854C155.396 946.628 154.729 946.523 154.037 946.538C153.333 946.551 152.628 946.711 151.919 947.018L149.884 944.026C150.957 943.526 152.055 943.228 153.18 943.132C154.294 943.035 155.389 943.142 156.465 943.455C157.531 943.765 158.535 944.267 159.479 944.961C160.423 945.655 161.264 946.541 162.002 947.619C163.164 949.315 163.797 951.102 163.902 952.98C164.001 954.861 163.56 956.7 162.579 958.497C161.593 960.287 160.057 961.896 157.971 963.325C155.879 964.758 153.821 965.605 151.798 965.866C149.768 966.132 147.897 965.876 146.185 965.1C144.466 964.328 143.028 963.097 141.87 961.406C141.158 960.367 140.644 959.294 140.328 958.19C140.001 957.083 139.877 955.972 139.958 954.858C140.032 953.749 140.319 952.676 140.818 951.641C141.312 950.609 142.028 949.65 142.967 948.764ZM152.723 934.646L154.873 937.784L130.447 944.153L128.108 940.737L142.874 920.264L145.024 923.403L132.781 939.926L132.886 940.079L152.723 934.646ZM144.689 939.375L137.717 929.194L140.204 927.49L147.177 937.671L144.689 939.375ZM140.936 917.434L121.34 930.855L119.315 927.899L136.366 916.221L130.285 907.342L132.83 905.598L140.936 917.434Z" fill="white"/>
<path d="M498.215 1233.41L490.627 1255.92L487.232 1254.78L490.529 1245L479.309 1241.21L476.011 1250.99L472.605 1249.85L480.193 1227.34L483.599 1228.49L480.291 1238.3L491.511 1242.08L494.82 1232.27L498.215 1233.41ZM475.247 1225.67L467.659 1248.18L453.549 1243.42L454.534 1240.5L465.249 1244.11L467.561 1237.25L457.583 1233.89L458.564 1230.98L468.543 1234.34L470.866 1227.45L460.019 1223.79L461.005 1220.87L475.247 1225.67ZM454.7 1218.74L458.304 1219.96L442.617 1239.73L438.694 1238.41L438.182 1213.17L441.787 1214.39L441.94 1234.95L442.116 1235.01L454.7 1218.74ZM451.124 1227.35L439.431 1223.41L440.394 1220.55L452.087 1224.5L451.124 1227.35ZM432.099 1232.93L431.114 1235.86L413.695 1229.98L414.681 1227.06L421.703 1229.43L428.306 1209.85L431.69 1210.99L425.088 1230.57L432.099 1232.93ZM576.03 1217.44L568.442 1239.94L554.332 1235.19L555.317 1232.26L566.032 1235.88L568.344 1229.02L558.366 1225.65L559.348 1222.74L569.326 1226.11L571.649 1219.22L560.802 1215.56L561.788 1212.64L576.03 1217.44ZM547.433 1232.86L545.016 1222.24L544.84 1222.18L536.488 1229.17L532.553 1227.84L543.359 1218.96L540.097 1205.32L544.054 1206.66L546.533 1217.16L546.709 1217.22L555.043 1210.36L558.999 1211.7L548.029 1220.53L551.367 1234.19L547.433 1232.86ZM513.564 1213.29L516.993 1214.45C516.878 1215.22 516.906 1215.95 517.077 1216.63C517.248 1217.31 517.528 1217.93 517.918 1218.49C518.307 1219.06 518.791 1219.55 519.369 1219.96C519.939 1220.37 520.584 1220.7 521.302 1220.94C522.598 1221.38 523.87 1221.45 525.115 1221.14C526.353 1220.83 527.481 1220.15 528.5 1219.09C529.511 1218.02 530.322 1216.58 530.935 1214.77C531.553 1212.93 531.781 1211.29 531.619 1209.83C531.451 1208.37 530.962 1207.15 530.154 1206.16C529.346 1205.17 528.301 1204.45 527.018 1204.02C526.308 1203.78 525.602 1203.65 524.9 1203.63C524.189 1203.61 523.509 1203.7 522.86 1203.91C522.211 1204.11 521.615 1204.43 521.071 1204.86C520.517 1205.29 520.049 1205.84 519.668 1206.51L516.243 1205.35C516.799 1204.3 517.498 1203.4 518.339 1202.65C519.17 1201.9 520.11 1201.33 521.158 1200.93C522.196 1200.54 523.3 1200.34 524.471 1200.32C525.642 1200.31 526.847 1200.51 528.085 1200.93C530.034 1201.59 531.615 1202.63 532.827 1204.07C534.038 1205.52 534.791 1207.25 535.087 1209.28C535.376 1211.3 535.117 1213.51 534.309 1215.9C533.499 1218.31 532.364 1220.22 530.904 1221.65C529.442 1223.08 527.793 1224 525.958 1224.41C524.121 1224.83 522.231 1224.71 520.29 1224.05C519.096 1223.65 518.04 1223.1 517.123 1222.41C516.196 1221.72 515.43 1220.91 514.825 1219.97C514.217 1219.04 513.801 1218.01 513.577 1216.88C513.351 1215.76 513.347 1214.56 513.564 1213.29ZM514.621 1196.73L507.033 1219.24L503.637 1218.1L506.935 1208.31L495.714 1204.53L492.417 1214.31L489.01 1213.16L496.598 1190.66L500.005 1191.81L496.696 1201.62L507.917 1205.4L511.225 1195.59L514.621 1196.73ZM489.752 1188.35L493.356 1189.56L477.669 1209.34L473.746 1208.02L473.235 1182.78L476.839 1184L476.992 1204.56L477.168 1204.62L489.752 1188.35ZM486.176 1196.96L474.483 1193.02L475.446 1190.16L487.139 1194.1L486.176 1196.96ZM444.231 1198.07L451.819 1175.56L454.94 1176.61L460.815 1196.98L461.024 1197.05L466.589 1180.54L469.984 1181.68L462.396 1204.19L459.253 1203.13L453.375 1182.74L453.166 1182.67L447.593 1199.2L444.231 1198.07ZM426.443 1184.15C426.431 1184.89 426.515 1185.58 426.696 1186.23C426.868 1186.88 427.136 1187.48 427.501 1188.02C427.863 1188.57 428.326 1189.05 428.889 1189.46C429.445 1189.86 430.097 1190.19 430.844 1190.44C432.112 1190.87 433.364 1190.93 434.603 1190.62C435.841 1190.31 436.969 1189.63 437.987 1188.57C438.996 1187.51 439.806 1186.08 440.419 1184.26C441.034 1182.44 441.257 1180.8 441.089 1179.33C440.92 1177.87 440.429 1176.64 439.616 1175.64C438.803 1174.64 437.737 1173.92 436.418 1173.48C435.195 1173.06 434.045 1172.95 432.968 1173.15C431.885 1173.34 430.94 1173.8 430.136 1174.54C429.322 1175.29 428.706 1176.28 428.288 1177.52L427.465 1177.05L433.905 1179.23L432.96 1182.03L424.113 1179.05L424.977 1176.49C425.614 1174.59 426.57 1173.09 427.845 1171.97C429.111 1170.85 430.578 1170.16 432.246 1169.88C433.907 1169.6 435.646 1169.77 437.463 1170.38C439.5 1171.06 441.129 1172.14 442.352 1173.59C443.567 1175.05 444.313 1176.78 444.589 1178.79C444.864 1180.81 444.6 1183 443.8 1185.38C443.195 1187.17 442.403 1188.7 441.423 1189.96C440.443 1191.22 439.334 1192.2 438.097 1192.89C436.85 1193.59 435.526 1193.99 434.125 1194.11C432.714 1194.23 431.279 1194.04 429.821 1193.55C428.605 1193.14 427.534 1192.58 426.607 1191.87C425.673 1191.15 424.907 1190.33 424.309 1189.39C423.703 1188.45 423.283 1187.44 423.047 1186.35C422.808 1185.26 422.779 1184.14 422.959 1182.98L426.443 1184.15ZM423.686 1166.08L416.098 1188.58L401.987 1183.82L402.973 1180.9L413.687 1184.51L415.999 1177.66L406.021 1174.29L407.003 1171.38L416.981 1174.74L419.304 1167.85L408.458 1164.2L409.443 1161.27L423.686 1166.08ZM405.039 1159.79L397.451 1182.3L389.429 1179.59C387.685 1179 386.339 1178.21 385.392 1177.23C384.437 1176.23 383.853 1175.11 383.639 1173.86C383.423 1172.61 383.549 1171.29 384.016 1169.91C384.48 1168.53 385.178 1167.42 386.11 1166.56C387.033 1165.72 388.17 1165.2 389.523 1165.01C390.868 1164.82 392.413 1165.02 394.156 1165.6L400.233 1167.65L399.248 1170.58L393.478 1168.63C392.38 1168.26 391.433 1168.12 390.638 1168.2C389.835 1168.28 389.172 1168.57 388.647 1169.06C388.122 1169.55 387.718 1170.22 387.434 1171.06C387.147 1171.91 387.064 1172.7 387.183 1173.44C387.296 1174.17 387.644 1174.82 388.229 1175.38C388.804 1175.95 389.652 1176.42 390.773 1176.8L395.037 1178.24L401.643 1158.64L405.039 1159.79ZM390.505 1166.2L388.368 1154.17L392.236 1155.47L394.264 1167.46L390.505 1166.2ZM367.223 1165.52C366.99 1166.6 367.201 1167.57 367.859 1168.43C368.513 1169.29 369.485 1169.94 370.775 1170.38C371.698 1170.69 372.546 1170.81 373.319 1170.74C374.089 1170.69 374.746 1170.47 375.29 1170.09C375.825 1169.71 376.199 1169.21 376.414 1168.57C376.595 1168.03 376.626 1167.53 376.507 1167.06C376.382 1166.58 376.158 1166.15 375.837 1165.74C375.506 1165.35 375.132 1164.98 374.715 1164.64C374.296 1164.31 373.885 1164.02 373.482 1163.76L371.477 1162.45C370.818 1162.03 370.162 1161.55 369.509 1160.99C368.855 1160.44 368.289 1159.8 367.81 1159.1C367.331 1158.39 367.016 1157.6 366.864 1156.75C366.706 1155.88 366.797 1154.95 367.138 1153.94C367.568 1152.66 368.279 1151.64 369.272 1150.88C370.258 1150.11 371.469 1149.65 372.908 1149.49C374.338 1149.34 375.933 1149.56 377.691 1150.15C379.376 1150.72 380.744 1151.48 381.795 1152.43C382.845 1153.38 383.553 1154.46 383.918 1155.68C384.28 1156.9 384.27 1158.2 383.886 1159.58L380.479 1158.44C380.688 1157.6 380.652 1156.83 380.374 1156.14C380.085 1155.44 379.623 1154.84 378.986 1154.33C378.34 1153.83 377.581 1153.43 376.709 1153.14C375.749 1152.81 374.845 1152.68 373.997 1152.73C373.138 1152.78 372.402 1153 371.787 1153.4C371.169 1153.8 370.737 1154.37 370.49 1155.1C370.265 1155.77 370.272 1156.38 370.509 1156.93C370.74 1157.49 371.13 1158.01 371.681 1158.5C372.225 1159 372.864 1159.49 373.598 1159.97L376.013 1161.59C377.65 1162.69 378.835 1163.89 379.569 1165.2C380.295 1166.51 380.394 1167.94 379.866 1169.51C379.428 1170.81 378.695 1171.82 377.666 1172.55C376.636 1173.28 375.431 1173.71 374.049 1173.84C372.665 1173.98 371.218 1173.79 369.709 1173.28C368.185 1172.77 366.931 1172.05 365.946 1171.12C364.954 1170.19 364.279 1169.15 363.921 1167.98C363.561 1166.82 363.57 1165.63 363.948 1164.42L367.223 1165.52Z" fill="white"/>
<path d="M942.523 1148.94L946.158 1147.82L944.984 1173.04L941.027 1174.25L925.865 1154.07L929.5 1152.95L941.641 1169.55L941.818 1169.5L942.523 1148.94ZM944.652 1158.02L932.86 1161.65L931.972 1158.77L943.764 1155.14L944.652 1158.02ZM922.587 1155.08L929.581 1177.78L921.49 1180.27C919.724 1180.82 918.162 1180.95 916.804 1180.66C915.446 1180.38 914.307 1179.76 913.387 1178.83C912.469 1177.9 911.796 1176.74 911.368 1175.35C910.938 1173.95 910.843 1172.6 911.083 1171.31C911.318 1170.02 911.919 1168.88 912.886 1167.87C913.848 1166.86 915.208 1166.09 916.966 1165.55L922.53 1163.84L923.425 1166.74L918.171 1168.36C917.056 1168.7 916.21 1169.18 915.634 1169.77C915.06 1170.38 914.714 1171.07 914.596 1171.84C914.478 1172.61 914.551 1173.43 914.815 1174.28C915.079 1175.14 915.476 1175.85 916.006 1176.42C916.536 1176.98 917.21 1177.35 918.028 1177.51C918.839 1177.67 919.813 1177.57 920.951 1177.22L925.251 1175.9L919.163 1156.14L922.587 1155.08ZM902.624 1161.23L909.617 1183.93L901.527 1186.42C899.761 1186.97 898.199 1187.1 896.841 1186.81C895.482 1186.53 894.343 1185.92 893.423 1184.98C892.505 1184.05 891.833 1182.89 891.405 1181.5C890.974 1180.1 890.879 1178.76 891.119 1177.46C891.354 1176.17 891.955 1175.03 892.922 1174.02C893.884 1173.02 895.244 1172.24 897.003 1171.7L902.567 1169.99L903.461 1172.89L898.208 1174.51C897.092 1174.85 896.246 1175.33 895.67 1175.92C895.096 1176.53 894.75 1177.22 894.632 1177.99C894.514 1178.76 894.587 1179.58 894.851 1180.44C895.116 1181.29 895.513 1182 896.043 1182.57C896.573 1183.13 897.247 1183.5 898.065 1183.66C898.875 1183.82 899.85 1183.73 900.987 1183.38L905.288 1182.05L899.199 1162.29L902.624 1161.23ZM882.66 1167.38L889.654 1190.08L886.229 1191.14L880.144 1171.39L869.859 1174.56L868.95 1171.61L882.66 1167.38ZM868.612 1196.57L861.619 1173.87L865.044 1172.81L872.037 1195.51L868.612 1196.57ZM842.498 1196.53L845.956 1195.46C846.317 1196.16 846.765 1196.74 847.3 1197.19C847.835 1197.64 848.425 1197.98 849.07 1198.21C849.715 1198.44 850.394 1198.55 851.106 1198.55C851.81 1198.55 852.524 1198.44 853.248 1198.22C854.556 1197.81 855.626 1197.12 856.458 1196.15C857.282 1195.17 857.798 1193.96 858.005 1192.5C858.204 1191.05 858.022 1189.41 857.457 1187.58C856.888 1185.73 856.112 1184.26 855.129 1183.17C854.139 1182.09 853.027 1181.38 851.792 1181.05C850.557 1180.71 849.294 1180.75 848.001 1181.15C847.284 1181.37 846.634 1181.67 846.05 1182.06C845.461 1182.46 844.964 1182.93 844.558 1183.48C844.151 1184.03 843.853 1184.63 843.661 1185.3C843.465 1185.97 843.408 1186.69 843.491 1187.46L840.029 1188.52C839.87 1187.34 839.912 1186.21 840.155 1185.1C840.393 1184.01 840.821 1183 841.439 1182.06C842.052 1181.14 842.83 1180.33 843.773 1179.63C844.715 1178.94 845.811 1178.4 847.06 1178.01C849.025 1177.41 850.92 1177.33 852.743 1177.79C854.569 1178.26 856.194 1179.22 857.618 1180.69C859.035 1182.17 860.115 1184.11 860.86 1186.53C861.606 1188.95 861.804 1191.17 861.452 1193.18C861.103 1195.19 860.303 1196.91 859.053 1198.31C857.805 1199.72 856.202 1200.73 854.244 1201.33C853.04 1201.7 851.863 1201.88 850.715 1201.85C849.561 1201.83 848.464 1201.62 847.424 1201.21C846.386 1200.81 845.447 1200.22 844.607 1199.44C843.769 1198.66 843.066 1197.69 842.498 1196.53ZM831.916 1183.02L835.551 1181.9L834.376 1207.11L830.42 1208.33L815.258 1188.15L818.893 1187.03L831.034 1203.63L831.211 1203.57L831.916 1183.02ZM834.045 1192.1L822.253 1195.73L821.365 1192.85L833.157 1189.21L834.045 1192.1ZM821.867 1207.74L822.775 1210.69L805.208 1216.1L804.3 1213.15L811.382 1210.97L805.297 1191.22L808.711 1190.17L814.796 1209.92L821.867 1207.74ZM797.902 1218.35L790.908 1195.65L794.333 1194.6L801.326 1217.3L797.902 1218.35ZM769.701 1214.61C768.954 1212.19 768.755 1209.97 769.105 1207.95C769.456 1205.94 770.26 1204.23 771.515 1202.82C772.765 1201.41 774.369 1200.41 776.327 1199.81C778.292 1199.2 780.191 1199.13 782.022 1199.58C783.848 1200.05 785.473 1201.01 786.897 1202.48C788.321 1203.95 789.405 1205.9 790.149 1208.31C790.896 1210.74 791.093 1212.95 790.742 1214.96C790.392 1216.98 789.593 1218.69 788.343 1220.1C787.087 1221.51 785.477 1222.52 783.512 1223.13C781.554 1223.73 779.662 1223.8 777.836 1223.33C776.005 1222.88 774.377 1221.91 772.953 1220.44C771.532 1218.98 770.447 1217.04 769.701 1214.61ZM773.092 1213.57C773.661 1215.42 774.44 1216.88 775.427 1217.96C776.41 1219.05 777.519 1219.76 778.754 1220.09C779.983 1220.43 781.248 1220.4 782.549 1220C783.857 1219.6 784.923 1218.91 785.747 1217.93C786.574 1216.97 787.091 1215.76 787.298 1214.3C787.499 1212.86 787.316 1211.21 786.747 1209.36C786.177 1207.52 785.402 1206.05 784.419 1204.96C783.431 1203.88 782.322 1203.17 781.093 1202.83C779.865 1202.49 778.598 1202.53 777.29 1202.93C775.99 1203.33 774.926 1204.02 774.099 1204.98C773.267 1205.96 772.751 1207.17 772.549 1208.62C772.342 1210.07 772.523 1211.72 773.092 1213.57ZM750.607 1232.92L743.614 1210.23L746.761 1209.26L763.428 1222.35L763.638 1222.28L758.509 1205.64L761.934 1204.58L768.928 1227.28L765.758 1228.26L749.073 1215.14L748.863 1215.21L753.999 1231.88L750.607 1232.92ZM731.394 1232.31C731.836 1233.33 732.574 1233.99 733.609 1234.3C734.646 1234.62 735.814 1234.58 737.115 1234.18C738.046 1233.89 738.805 1233.5 739.394 1232.99C739.985 1232.49 740.391 1231.93 740.61 1231.31C740.825 1230.69 740.833 1230.06 740.635 1229.42C740.469 1228.88 740.2 1228.45 739.828 1228.14C739.449 1227.83 739.011 1227.6 738.516 1227.46C738.015 1227.33 737.497 1227.25 736.962 1227.23C736.429 1227.2 735.924 1227.21 735.447 1227.23L733.053 1227.34C732.274 1227.38 731.457 1227.37 730.603 1227.3C729.749 1227.24 728.92 1227.05 728.117 1226.76C727.315 1226.46 726.601 1226.01 725.977 1225.4C725.345 1224.8 724.872 1223.98 724.558 1222.97C724.162 1221.68 724.142 1220.44 724.5 1219.23C724.85 1218.03 725.565 1216.95 726.643 1215.99C727.714 1215.03 729.137 1214.27 730.91 1213.73C732.609 1213.2 734.163 1213.02 735.57 1213.18C736.978 1213.33 738.185 1213.8 739.192 1214.57C740.201 1215.35 740.953 1216.42 741.448 1217.76L738.013 1218.82C737.694 1218.02 737.217 1217.42 736.583 1217.01C735.944 1216.62 735.218 1216.4 734.404 1216.36C733.586 1216.33 732.737 1216.45 731.857 1216.72C730.89 1217.02 730.075 1217.44 729.415 1217.97C728.75 1218.52 728.283 1219.13 728.016 1219.81C727.751 1220.5 727.732 1221.21 727.959 1221.95C728.167 1222.63 728.528 1223.12 729.045 1223.43C729.553 1223.74 730.176 1223.94 730.913 1224.02C731.642 1224.1 732.446 1224.12 733.325 1224.09L736.233 1223.99C738.203 1223.93 739.868 1224.21 741.228 1224.84C742.58 1225.48 743.5 1226.59 743.987 1228.17C744.39 1229.48 744.387 1230.73 743.978 1231.92C743.57 1233.11 742.842 1234.17 741.797 1235.08C740.754 1236 739.471 1236.69 737.949 1237.16C736.412 1237.64 734.973 1237.78 733.632 1237.61C732.284 1237.43 731.124 1236.98 730.153 1236.24C729.184 1235.51 728.497 1234.54 728.092 1233.33L731.394 1232.31Z" fill="white"/>
</g>
<defs>
<clipPath id="clip0_61_4726">
<rect width="954" height="1279.68" fill="white"/>
</clipPath>
</defs>
</svg>
