<svg width="138" height="31" viewBox="0 0 138 31" fill="none" xmlns="http://www.w3.org/2000/svg">
<g opacity="0.6">
<path d="M33.6484 7.29419H36.8138V22.6112H33.6484V7.29419Z" fill="#1D2130"/>
<path d="M38.5864 17.3642C38.5864 16.2622 38.9121 15.185 39.5222 14.2691C40.1322 13.3533 40.9992 12.6401 42.0133 12.2198C43.0273 11.7996 44.1427 11.6912 45.2181 11.9085C46.2935 12.1259 47.2804 12.659 48.0538 13.4405C48.8272 14.222 49.3523 15.2165 49.5625 16.2981C49.7726 17.3797 49.6584 18.4996 49.2343 19.5159C48.8102 20.5322 48.0952 21.3992 47.1801 22.0068C46.265 22.6145 45.191 22.9355 44.0941 22.9292C43.3665 22.9349 42.6452 22.7946 41.9723 22.5166C41.2994 22.2385 40.6886 21.8283 40.1756 21.31C39.6626 20.7917 39.2578 20.1757 38.9849 19.4981C38.712 18.8205 38.5765 18.095 38.5864 17.3642ZM46.5208 17.3642C46.5084 16.8891 46.3568 16.4282 46.085 16.0392C45.8132 15.6503 45.4333 15.3504 44.9928 15.1772C44.5522 15.004 44.0706 14.9651 43.6082 15.0654C43.1458 15.1657 42.7231 15.4008 42.393 15.7412C42.0629 16.0816 41.8399 16.5122 41.7521 16.9792C41.6643 17.4462 41.7155 17.9288 41.8993 18.3667C42.0831 18.8047 42.3913 19.1784 42.7855 19.4413C43.1796 19.7041 43.6421 19.8444 44.1152 19.8446C44.4372 19.8509 44.7572 19.7904 45.0549 19.6668C45.3527 19.5433 45.6219 19.3594 45.8457 19.1266C46.0695 18.8938 46.243 18.6171 46.3556 18.3139C46.4681 18.0106 46.5172 17.6873 46.4997 17.3642H46.5208Z" fill="#1D2130"/>
<path d="M62.126 12.1172V22.0918C62.126 25.611 59.3827 27.1056 56.6077 27.1056C55.629 27.1863 54.6472 26.9909 53.7729 26.5415C52.8987 26.092 52.1666 25.4063 51.6593 24.5616L54.3287 23.014C54.545 23.4521 54.8891 23.8137 55.3151 24.0504C55.7411 24.2871 56.2288 24.3878 56.7133 24.339C57.0218 24.3772 57.335 24.3464 57.6304 24.2488C57.9258 24.1513 58.196 23.9893 58.4218 23.7746C58.6477 23.5599 58.8235 23.2977 58.9367 23.0068C59.0499 22.7159 59.0977 22.4034 59.0767 22.0918V21.1272C58.7084 21.5758 58.241 21.9321 57.7117 22.1676C57.1824 22.4031 56.6057 22.5115 56.0274 22.484C54.6283 22.484 53.2864 21.9256 52.297 20.9316C51.3077 19.9377 50.7519 18.5896 50.7519 17.184C50.7519 15.7783 51.3077 14.4303 52.297 13.4363C53.2864 12.4424 54.6283 11.884 56.0274 11.884C56.6057 11.8565 57.1824 11.9648 57.7117 12.2004C58.241 12.4359 58.7084 12.7921 59.0767 13.2408V12.1808L62.126 12.1172ZM59.0767 17.1522C59.0978 16.645 58.9673 16.1432 58.7022 15.7111C58.437 15.279 58.0493 14.9365 57.5888 14.7276C57.1284 14.5187 56.6162 14.453 56.1183 14.5388C55.6203 14.6247 55.1593 14.8582 54.7945 15.2094C54.4298 15.5606 54.1779 16.0134 54.0713 16.5096C53.9648 17.0057 54.0084 17.5226 54.1965 17.9936C54.3847 18.4647 54.7088 18.8685 55.1272 19.153C55.5456 19.4375 56.0392 19.5897 56.5444 19.5902C56.8741 19.614 57.2051 19.5682 57.516 19.4555C57.827 19.3429 58.1109 19.166 58.3496 18.9362C58.5882 18.7065 58.7762 18.429 58.9015 18.1217C59.0267 17.8144 59.0864 17.4841 59.0767 17.1522Z" fill="#1D2130"/>
<path d="M63.9091 17.3642C63.9091 16.2631 64.2342 15.1867 64.8434 14.2713C65.4525 13.3559 66.3183 12.6427 67.3311 12.2218C68.3439 11.8009 69.4582 11.6913 70.533 11.9069C71.6078 12.1225 72.5948 12.6536 73.3691 13.4329C74.1433 14.2122 74.6701 15.2048 74.8826 16.285C75.0952 17.3652 74.984 18.4845 74.5631 19.5012C74.1422 20.5178 73.4306 21.3862 72.5183 21.9965C71.6059 22.6067 70.5339 22.9313 69.4379 22.9292C68.709 22.9363 67.986 22.7971 67.3113 22.5198C66.6367 22.2425 66.0239 21.8327 65.5089 21.3144C64.994 20.7961 64.5872 20.1797 64.3125 19.5014C64.0378 18.823 63.9006 18.0964 63.9091 17.3642ZM71.8435 17.3642C71.8311 16.8886 71.6792 16.4274 71.4069 16.0382C71.1347 15.649 70.7541 15.3491 70.313 15.1763C69.8719 15.0034 69.3898 14.9651 68.9271 15.0663C68.4644 15.1675 68.0417 15.4036 67.712 15.745C67.3823 16.0864 67.1603 16.518 67.0737 16.9857C66.987 17.4534 67.0397 17.9364 67.2251 18.3741C67.4105 18.8118 67.7204 19.1848 68.1159 19.4464C68.5114 19.708 68.9749 19.8465 69.4484 19.8446C69.7705 19.8509 70.0904 19.7904 70.3882 19.6668C70.686 19.5433 70.9551 19.3594 71.1789 19.1266C71.4027 18.8938 71.5763 18.6171 71.6889 18.3139C71.8014 18.0106 71.8505 17.6873 71.833 17.3642H71.8435Z" fill="#1D2130"/>
<path d="M76.4333 9.30814C76.4333 8.93496 76.5435 8.57017 76.7499 8.25988C76.9562 7.9496 77.2496 7.70777 77.5927 7.56496C77.9359 7.42215 78.3135 7.38479 78.6778 7.45759C79.0422 7.53039 79.3768 7.71009 79.6395 7.97397C79.9021 8.23784 80.081 8.57403 80.1535 8.94004C80.2259 9.30604 80.1887 9.68542 80.0466 10.0302C79.9044 10.375 79.6637 10.6696 79.3549 10.877C79.046 11.0843 78.6829 11.1949 78.3114 11.1949C77.815 11.1894 77.3405 10.9889 76.9895 10.6362C76.6385 10.2836 76.4388 9.80684 76.4333 9.30814ZM76.7393 12.1171H79.9047V22.6111H76.7393V12.1171Z" fill="#1D2130"/>
<path d="M93.4523 17.3642C93.4878 18.0621 93.3855 18.7602 93.1514 19.4182C92.9173 20.0763 92.556 20.6813 92.0882 21.1986C91.6204 21.7158 91.0555 22.135 90.4258 22.432C89.7962 22.729 89.1143 22.898 88.4194 22.9292C87.8297 22.9686 87.2388 22.8737 86.6907 22.6517C86.1426 22.4296 85.6515 22.086 85.2541 21.6466V26.83H82.0887V12.1172H85.2541V13.103C85.652 12.6649 86.1435 12.3229 86.6916 12.1026C87.2398 11.8824 87.8305 11.7895 88.4194 11.831C89.1115 11.8623 89.7907 12.0303 90.4182 12.3253C91.0457 12.6203 91.6092 13.0366 92.0765 13.5504C92.5439 14.0642 92.9059 14.6655 93.142 15.3199C93.378 15.9742 93.4835 16.6689 93.4523 17.3642ZM90.2869 17.3642C90.2745 16.8719 90.1176 16.3942 89.8361 15.9911C89.5546 15.5879 89.1608 15.2772 88.7043 15.0979C88.2477 14.9186 87.7486 14.8787 87.2696 14.9831C86.7905 15.0876 86.3528 15.3318 86.0113 15.6851C85.6698 16.0384 85.4397 16.4851 85.3498 16.9692C85.2599 17.4534 85.3143 17.9534 85.5061 18.4066C85.6979 18.8598 86.0186 19.2461 86.428 19.517C86.8374 19.7879 87.3172 19.9313 87.8074 19.9294C88.1432 19.9437 88.4782 19.8866 88.7904 19.7617C89.1027 19.6368 89.3851 19.4471 89.6192 19.2049C89.8533 18.9627 90.0339 18.6735 90.1489 18.3563C90.264 18.039 90.311 17.701 90.2869 17.3642Z" fill="#1D2130"/>
<path d="M103.085 19.463C103.085 21.8798 100.975 22.908 98.7384 22.908C97.8261 22.9905 96.9101 22.7962 96.1088 22.3502C95.3076 21.9043 94.6578 21.2272 94.2436 20.4064L96.9658 18.8588C97.0736 19.237 97.3075 19.5666 97.6282 19.7923C97.949 20.0181 98.3372 20.1263 98.7278 20.099C99.477 20.099 99.8568 19.8658 99.8568 19.4418C99.8568 18.2864 94.7184 18.9012 94.7184 15.2654C94.7184 12.9758 96.6387 11.831 98.8123 11.831C99.6385 11.7938 100.459 11.9821 101.187 12.3759C101.916 12.7697 102.524 13.3543 102.948 14.0676L100.226 15.5092C100.106 15.2357 99.9093 15.0031 99.6603 14.8394C99.4113 14.6758 99.1204 14.5881 98.8228 14.587C98.2741 14.587 97.9471 14.799 97.9471 15.17C97.9471 16.3784 103.085 15.5834 103.085 19.463Z" fill="#1D2130"/>
<path d="M114.554 12.1172V22.6112H111.389V21.6254C111.03 22.0618 110.573 22.4071 110.056 22.6336C109.539 22.8601 108.977 22.9613 108.414 22.9292C106.303 22.9292 104.499 21.4134 104.499 18.5832V12.1172H107.665V18.1062C107.64 18.3566 107.669 18.6094 107.751 18.8472C107.833 19.085 107.965 19.3021 108.139 19.4836C108.312 19.665 108.523 19.8064 108.756 19.898C108.99 19.9896 109.24 20.0293 109.49 20.0142C110.629 20.0142 111.431 19.3358 111.431 17.8942V12.1172H114.554Z" fill="#1D2130"/>
<path d="M132.491 16.1664V22.6112H129.326V16.442C129.326 15.382 128.83 14.7248 127.828 14.7248C126.825 14.7248 126.192 15.4562 126.192 16.6964V22.6112H123.027V16.442C123.027 15.382 122.531 14.7248 121.529 14.7248C120.526 14.7248 119.893 15.4562 119.893 16.6964V22.6112H116.728V12.1172H119.893V13.0818C120.221 12.6556 120.649 12.3181 121.139 12.0997C121.629 11.8814 122.166 11.789 122.7 11.831C123.235 11.8029 123.769 11.9152 124.248 12.1568C124.727 12.3984 125.135 12.761 125.433 13.209C125.78 12.7409 126.241 12.369 126.77 12.128C127.3 11.8871 127.881 11.7849 128.461 11.831C130.93 11.831 132.491 13.5482 132.491 16.1664Z" fill="#1D2130"/>
<path d="M14.7936 4.5382V0.0332031H0.655029V30.9852H14.7936V26.4802C11.8973 26.4802 9.11962 25.3243 7.07165 23.2669C5.02367 21.2094 3.87313 18.4189 3.87313 15.5092C3.87313 12.5995 5.02367 9.80899 7.07165 7.75153C9.11962 5.69407 11.8973 4.5382 14.7936 4.5382Z" fill="#1D2130"/>
<path d="M14.7936 4.5382V26.4802C17.6898 26.4802 20.4674 25.3243 22.5154 23.2669C24.5634 21.2094 25.7139 18.4189 25.7139 15.5092C25.7139 12.5995 24.5634 9.809 22.5154 7.75154C20.4674 5.69407 17.6898 4.5382 14.7936 4.5382Z" fill="#1D2130"/>
<path d="M135.15 12.0536C136.432 12.0536 137.472 11.0095 137.472 9.72157C137.472 8.43365 136.432 7.38957 135.15 7.38957C133.868 7.38957 132.829 8.43365 132.829 9.72157C132.829 11.0095 133.868 12.0536 135.15 12.0536Z" fill="#1D2130"/>
</g>
</svg>
