<svg width="127" height="29" viewBox="0 0 127 29" fill="none" xmlns="http://www.w3.org/2000/svg">
<g opacity="0.6">
<path d="M37.0633 8.29271H40.2286V21.0292H37.0633V8.29271ZM41.4842 16.2202C41.4842 13.0702 43.4256 11.1907 46.4222 11.1907C49.4187 11.1907 51.3601 13.0702 51.3601 16.2202C51.3601 19.3702 49.4609 21.2602 46.4222 21.2602C43.3834 21.2602 41.4842 19.4227 41.4842 16.2202ZM48.1842 16.2202C48.1842 14.4877 47.4984 13.4692 46.4222 13.4692C45.3459 13.4692 44.6707 14.5192 44.6707 16.2202C44.6707 17.9212 45.3354 18.9502 46.4222 18.9502C47.5089 18.9502 48.1842 17.9842 48.1842 16.2307V16.2202ZM52.5524 21.6487H55.5911C55.7357 21.9684 55.9802 22.2331 56.2882 22.4034C56.5962 22.5737 56.9512 22.6404 57.3004 22.5937C58.5032 22.5937 59.1363 21.9427 59.1363 20.9977V19.2337H59.073C58.8208 19.7744 58.4116 20.2274 57.8981 20.5343C57.3847 20.8413 56.7906 20.988 56.1925 20.9557C53.8818 20.9557 52.3519 19.2022 52.3519 16.1887C52.3519 13.1752 53.808 11.2747 56.2347 11.2747C56.8515 11.2507 57.461 11.4148 57.9815 11.745C58.502 12.0753 58.9086 12.556 59.1468 13.1227V11.3692H62.3122V20.9242C62.3122 23.2237 60.2758 24.6517 57.2687 24.6517C54.4727 24.6517 52.7317 23.4022 52.5524 21.6592V21.6487ZM59.1468 16.2097C59.1468 14.6767 58.4399 13.7107 57.3215 13.7107C56.2031 13.7107 55.5172 14.6662 55.5172 16.2097C55.5172 17.7532 56.1925 18.6247 57.3215 18.6247C58.4505 18.6247 59.1468 17.7742 59.1468 16.2202V16.2097ZM63.5045 16.2097C63.5045 13.0597 65.4459 11.1802 68.4424 11.1802C71.4389 11.1802 73.3909 13.0597 73.3909 16.2097C73.3909 19.3597 71.4917 21.2497 68.4424 21.2497C65.3931 21.2497 63.5045 19.4227 63.5045 16.2202V16.2097ZM70.2044 16.2097C70.2044 14.4772 69.5186 13.4587 68.4424 13.4587C67.3662 13.4587 66.7437 14.5192 66.7437 16.2307C66.7437 17.9422 67.4084 18.9607 68.4846 18.9607C69.5608 18.9607 70.2044 17.9842 70.2044 16.2307V16.2097ZM74.5937 9.08021C74.5854 8.76217 74.6722 8.44885 74.843 8.17995C75.0139 7.91105 75.2612 7.69869 75.5534 7.56979C75.8457 7.4409 76.1699 7.40126 76.4848 7.45592C76.7998 7.51058 77.0913 7.65706 77.3225 7.8768C77.5537 8.09654 77.7141 8.37965 77.7834 8.69023C77.8527 9.00081 77.8278 9.32487 77.7118 9.62134C77.5958 9.91781 77.394 10.1733 77.1319 10.3555C76.8699 10.5377 76.5593 10.6384 76.2397 10.6447C76.0278 10.6592 75.8152 10.6299 75.6152 10.5587C75.4152 10.4875 75.2322 10.376 75.0777 10.231C74.9231 10.0861 74.8003 9.91088 74.717 9.71645C74.6337 9.52202 74.5918 9.31256 74.5937 9.10121V9.08021ZM74.5937 11.3902H77.759V21.0292H74.5937V11.3902ZM89.2492 16.2097C89.2492 19.3597 87.8459 21.1552 85.4403 21.1552C84.8234 21.1946 84.2093 21.0445 83.6809 20.7253C83.1525 20.4061 82.7354 19.933 82.486 19.3702H82.4226V24.1162H79.2573V11.3692H82.4226V13.0912H82.486C82.7238 12.5191 83.133 12.0337 83.6578 11.7012C84.1826 11.3687 84.7976 11.2051 85.4192 11.2327C87.8459 11.2747 89.2914 13.0807 89.2914 16.2307L89.2492 16.2097ZM86.0839 16.2097C86.0839 14.6767 85.377 13.7002 84.2691 13.7002C83.1612 13.7002 82.4543 14.6872 82.4437 16.2097C82.4332 17.7322 83.1612 18.7087 84.2691 18.7087C85.377 18.7087 86.0839 17.7532 86.0839 16.2307V16.2097ZM94.6831 11.1697C97.3103 11.1697 98.9035 12.4087 98.9774 14.3932H96.0969C96.0969 13.7107 95.5272 13.2802 94.6514 13.2802C93.7757 13.2802 93.3853 13.6162 93.3853 14.1097C93.3853 14.6032 93.7335 14.7607 94.4404 14.9077L96.4662 15.3172C98.3971 15.7267 99.2201 16.5037 99.2201 17.9632C99.2201 19.9582 97.3947 21.2392 94.7042 21.2392C92.0136 21.2392 90.2516 19.9582 90.1144 17.9947H93.1637C93.2587 18.7087 93.8284 19.1287 94.7569 19.1287C95.6854 19.1287 96.1075 18.8242 96.1075 18.3202C96.1075 17.8162 95.812 17.7112 95.0524 17.5537L93.227 17.1652C91.3384 16.7767 90.3465 15.7792 90.3465 14.3092C90.3677 12.4192 92.0664 11.1907 94.6831 11.1907V11.1697ZM109.782 21.0082H106.732V19.2127H106.669C106.502 19.8155 106.132 20.3432 105.621 20.708C105.111 21.0728 104.49 21.2528 103.863 21.2182C103.382 21.2454 102.9 21.1696 102.452 20.9958C102.003 20.8221 101.596 20.5545 101.26 20.2111C100.924 19.8677 100.666 19.4565 100.503 19.0053C100.341 18.5541 100.277 18.0734 100.317 17.5957V11.3692H103.483V16.8712C103.483 18.0157 104.074 18.6247 105.055 18.6247C105.285 18.6252 105.512 18.5767 105.722 18.4825C105.932 18.3883 106.119 18.2506 106.271 18.0786C106.423 17.9066 106.536 17.7042 106.603 17.4851C106.67 17.266 106.689 17.0352 106.659 16.8082V11.3692H109.824L109.782 21.0082ZM111.312 11.3692H114.371V13.2277H114.435C114.603 12.6329 114.964 12.1102 115.463 11.7416C115.961 11.373 116.568 11.1793 117.189 11.1907C117.82 11.1404 118.448 11.3285 118.946 11.7176C119.445 12.1067 119.778 12.6683 119.879 13.2907H119.942C120.134 12.6617 120.53 12.1139 121.069 11.7337C121.608 11.3535 122.258 11.1625 122.918 11.1907C123.348 11.1763 123.777 11.2522 124.176 11.4135C124.575 11.5747 124.936 11.8177 125.234 12.1267C125.533 12.4357 125.763 12.8037 125.909 13.2068C126.055 13.61 126.115 14.0392 126.083 14.4667V21.0292H122.918V15.3067C122.918 14.2567 122.443 13.7737 121.557 13.7737C121.359 13.772 121.163 13.8126 120.983 13.8926C120.802 13.9726 120.641 14.0902 120.51 14.2375C120.379 14.3848 120.281 14.5583 120.224 14.7464C120.166 14.9344 120.149 15.1327 120.175 15.3277V21.0292H117.168V15.2647C117.168 14.2987 116.693 13.7737 115.828 13.7737C115.628 13.7738 115.43 13.816 115.248 13.8976C115.066 13.9793 114.903 14.0984 114.77 14.2473C114.637 14.3961 114.538 14.5712 114.478 14.7611C114.419 14.9509 114.4 15.1512 114.424 15.3487V21.0292H111.259L111.312 11.3692Z" fill="#1D2130"/>
<path d="M28.2109 8.87027C27.674 7.64845 26.9633 6.5098 26.1007 5.48927C24.8255 3.93563 23.2342 2.66833 21.4315 1.77081C19.6287 0.87328 17.6554 0.365868 15.6413 0.281964C13.6273 0.198061 11.6183 0.539567 9.74645 1.28401C7.87461 2.02846 6.18242 3.15896 4.78126 4.60111C3.38009 6.04326 2.30171 7.76436 1.6171 9.65113C0.932485 11.5379 0.657159 13.5476 0.809245 15.5479C0.96133 17.5482 1.53738 19.4937 2.49947 21.2565C3.46157 23.0193 4.78789 24.5593 6.39116 25.7753C7.4199 26.5711 8.55662 27.218 9.76753 27.6968C11.4652 28.3891 13.2822 28.7458 15.117 28.7468C18.9042 28.7384 22.5336 27.2361 25.2096 24.5691C27.8856 21.9022 29.3899 18.2881 29.3926 14.5193C29.3954 12.5752 28.993 10.6517 28.2109 8.87027ZM15.1064 3.16877C16.754 3.16859 18.3817 3.52696 19.8755 4.21877C19.5113 4.37539 19.1283 4.48479 18.736 4.54427C17.4452 4.73022 16.2494 5.3266 15.3271 6.2444C14.4048 7.1622 13.8055 8.35219 13.6187 9.63677C13.5367 10.3572 13.2074 11.0274 12.6865 11.5343C12.1656 12.0412 11.4849 12.3538 10.7593 12.4193C9.4685 12.6052 8.27271 13.2016 7.35044 14.1194C6.42817 15.0372 5.82888 16.2272 5.64203 17.5118C5.57877 18.1968 5.28508 18.8405 4.80849 19.3388C3.98619 17.6097 3.61679 15.7017 3.73467 13.7924C3.85255 11.883 4.45387 10.0344 5.48267 8.4185C6.51148 6.80261 7.93434 5.47196 9.61883 4.55041C11.3033 3.62886 13.1947 3.14634 15.117 3.14777L15.1064 3.16877ZM6.38061 21.8693C6.50722 21.7538 6.63384 21.6488 6.76045 21.5228C7.69914 20.6171 8.30167 19.4216 8.46974 18.1313C8.53788 17.406 8.86329 16.7285 9.38768 16.2203C9.89229 15.6975 10.5715 15.3764 11.2974 15.3173C12.5883 15.1313 13.7841 14.5349 14.7063 13.6171C15.6286 12.6993 16.2279 11.5093 16.4147 10.2248C16.4604 9.46616 16.7875 8.75145 17.3327 8.21927C17.8498 7.70671 18.5354 7.39723 19.2636 7.34777C20.4494 7.1854 21.5554 6.66077 22.4289 5.84627C23.4235 6.66744 24.2662 7.65531 24.919 8.76527C24.8789 8.81919 24.8329 8.86849 24.7818 8.91227C24.2782 9.43957 23.5998 9.76777 22.872 9.83627C21.5799 10.019 20.3823 10.6143 19.4594 11.5327C18.5366 12.4511 17.9383 13.6429 17.7547 14.9288C17.6804 15.6516 17.3572 16.3267 16.8399 16.8395C16.3227 17.3523 15.6431 17.6715 14.9165 17.7428C13.6219 17.9273 12.4216 18.5225 11.494 19.4399C10.5664 20.3574 9.96093 21.5481 9.76753 22.8353C9.71074 23.3484 9.53365 23.8412 9.25052 24.2738C8.16797 23.6341 7.19841 22.8218 6.38061 21.8693ZM15.1064 25.9223C14.0357 25.9234 12.9702 25.775 11.9411 25.4813C12.2931 24.8282 12.522 24.1164 12.6163 23.3813C12.6903 22.66 13.012 21.9862 13.5271 21.4736C14.0422 20.961 14.7193 20.6409 15.444 20.5673C16.7368 20.3834 17.935 19.788 18.8593 18.87C19.7836 17.952 20.3845 16.7609 20.5719 15.4748C20.6458 14.7535 20.9675 14.0798 21.4827 13.5671C21.9978 13.0545 22.6748 12.7344 23.3996 12.6608C24.3724 12.5348 25.2997 12.1744 26.1007 11.6108C26.5455 13.2886 26.5982 15.0455 26.2547 16.7467C25.9113 18.4479 25.1808 20.0482 24.1193 21.4249C23.0579 22.8015 21.6936 23.9179 20.1313 24.6884C18.569 25.4589 16.8501 25.863 15.1064 25.8698V25.9223Z" fill="#1D2130"/>
</g>
</svg>
