<svg width="137" height="31" viewBox="0 0 137 31" fill="none" xmlns="http://www.w3.org/2000/svg">
<g opacity="0.6">
<path d="M33.1768 7.29419H36.3421V22.6112H33.1768V7.29419Z" fill="#1D2130"/>
<path d="M38.1147 17.3642C38.1147 16.2622 38.4404 15.185 39.0505 14.2691C39.6606 13.3533 40.5276 12.6401 41.5416 12.2198C42.5556 11.7996 43.671 11.6912 44.7464 11.9085C45.8218 12.1259 46.8087 12.659 47.5822 13.4405C48.3556 14.222 48.8806 15.2165 49.0908 16.2981C49.3009 17.3797 49.1867 18.4996 48.7626 19.5159C48.3385 20.5322 47.6236 21.3992 46.7085 22.0068C45.7934 22.6145 44.7193 22.9355 43.6224 22.9292C42.8948 22.9349 42.1735 22.7946 41.5006 22.5166C40.8278 22.2385 40.2169 21.8283 39.7039 21.31C39.1909 20.7917 38.7861 20.1757 38.5132 19.4981C38.2403 18.8205 38.1048 18.095 38.1147 17.3642ZM46.0491 17.3642C46.0367 16.8891 45.8851 16.4282 45.6133 16.0392C45.3415 15.6503 44.9616 15.3504 44.5211 15.1772C44.0805 15.004 43.599 14.9651 43.1366 15.0654C42.6742 15.1657 42.2514 15.4008 41.9213 15.7412C41.5912 16.0816 41.3683 16.5122 41.2805 16.9792C41.1927 17.4462 41.2438 17.9288 41.4276 18.3667C41.6114 18.8047 41.9197 19.1784 42.3138 19.4413C42.7079 19.7041 43.1704 19.8444 43.6435 19.8446C43.9656 19.8509 44.2855 19.7904 44.5832 19.6668C44.881 19.5433 45.1502 19.3594 45.374 19.1266C45.5978 18.8938 45.7714 18.6171 45.8839 18.3139C45.9964 18.0106 46.0455 17.6873 46.028 17.3642H46.0491Z" fill="#1D2130"/>
<path d="M61.6543 12.1172V22.0918C61.6543 25.611 58.911 27.1056 56.1361 27.1056C55.1573 27.1863 54.1755 26.9909 53.3012 26.5415C52.427 26.092 51.695 25.4063 51.1876 24.5616L53.857 23.014C54.0733 23.4521 54.4174 23.8137 54.8434 24.0504C55.2695 24.2871 55.7572 24.3878 56.2416 24.339C56.5502 24.3772 56.8633 24.3464 57.1587 24.2488C57.4541 24.1513 57.7243 23.9893 57.9502 23.7746C58.176 23.5599 58.3518 23.2977 58.465 23.0068C58.5782 22.7159 58.626 22.4034 58.605 22.0918V21.1272C58.2367 21.5758 57.7693 21.9321 57.24 22.1676C56.7107 22.4031 56.134 22.5115 55.5558 22.484C54.1566 22.484 52.8147 21.9256 51.8254 20.9316C50.836 19.9377 50.2802 18.5896 50.2802 17.184C50.2802 15.7783 50.836 14.4303 51.8254 13.4363C52.8147 12.4424 54.1566 11.884 55.5558 11.884C56.134 11.8565 56.7107 11.9648 57.24 12.2004C57.7693 12.4359 58.2367 12.7921 58.605 13.2408V12.1808L61.6543 12.1172ZM58.605 17.1522C58.6261 16.645 58.4956 16.1432 58.2305 15.7111C57.9654 15.279 57.5776 14.9365 57.1172 14.7276C56.6567 14.5187 56.1446 14.453 55.6466 14.5388C55.1486 14.6247 54.6876 14.8582 54.3229 15.2094C53.9581 15.5606 53.7062 16.0134 53.5997 16.5096C53.4931 17.0057 53.5367 17.5226 53.7249 17.9936C53.913 18.4647 54.2371 18.8685 54.6556 19.153C55.074 19.4375 55.5675 19.5897 56.0728 19.5902C56.4024 19.614 56.7334 19.5682 57.0444 19.4555C57.3553 19.3429 57.6392 19.166 57.8779 18.9362C58.1165 18.7065 58.3045 18.429 58.4298 18.1217C58.555 17.8144 58.6147 17.4841 58.605 17.1522Z" fill="#1D2130"/>
<path d="M63.4374 17.3642C63.4374 16.2631 63.7626 15.1867 64.3717 14.2713C64.9808 13.3559 65.8466 12.6427 66.8594 12.2218C67.8722 11.8009 68.9865 11.6913 70.0613 11.9069C71.1361 12.1225 72.1231 12.6536 72.8974 13.4329C73.6717 14.2122 74.1984 15.2048 74.4109 16.285C74.6235 17.3652 74.5123 18.4845 74.0914 19.5012C73.6705 20.5178 72.9589 21.3862 72.0466 21.9965C71.1342 22.6067 70.0622 22.9313 68.9662 22.9292C68.2373 22.9363 67.5143 22.7971 66.8396 22.5198C66.165 22.2425 65.5522 21.8327 65.0372 21.3144C64.5223 20.7961 64.1155 20.1797 63.8408 19.5014C63.5661 18.823 63.429 18.0964 63.4374 17.3642ZM71.3719 17.3642C71.3594 16.8886 71.2075 16.4274 70.9353 16.0382C70.663 15.649 70.2825 15.3491 69.8413 15.1763C69.4002 15.0034 68.9181 14.9651 68.4554 15.0663C67.9927 15.1675 67.5701 15.4036 67.2404 15.745C66.9107 16.0864 66.6886 16.518 66.602 16.9857C66.5154 17.4534 66.5681 17.9364 66.7535 18.3741C66.9389 18.8118 67.2487 19.1848 67.6442 19.4464C68.0397 19.708 68.5033 19.8465 68.9768 19.8446C69.2988 19.8509 69.6188 19.7904 69.9165 19.6668C70.2143 19.5433 70.4835 19.3594 70.7073 19.1266C70.9311 18.8938 71.1046 18.6171 71.2172 18.3139C71.3297 18.0106 71.3788 17.6873 71.3613 17.3642H71.3719Z" fill="#1D2130"/>
<path d="M75.9617 9.30814C75.9617 8.93496 76.0718 8.57017 76.2782 8.25988C76.4846 7.9496 76.7779 7.70777 77.1211 7.56496C77.4642 7.42215 77.8419 7.38479 78.2062 7.45759C78.5705 7.53039 78.9051 7.71009 79.1678 7.97397C79.4305 8.23784 79.6093 8.57403 79.6818 8.94004C79.7542 9.30604 79.7171 9.68542 79.5749 10.0302C79.4328 10.375 79.192 10.6696 78.8832 10.877C78.5743 11.0843 78.2112 11.1949 77.8398 11.1949C77.3434 11.1894 76.8688 10.9889 76.5178 10.6362C76.1668 10.2836 75.9672 9.80684 75.9617 9.30814ZM76.2677 12.1171H79.433V22.6111H76.2677V12.1171Z" fill="#1D2130"/>
<path d="M92.9806 17.3642C93.0161 18.0621 92.9138 18.7602 92.6797 19.4182C92.4456 20.0763 92.0843 20.6813 91.6165 21.1986C91.1488 21.7158 90.5838 22.135 89.9541 22.432C89.3245 22.729 88.6426 22.898 87.9477 22.9292C87.358 22.9686 86.7671 22.8737 86.219 22.6517C85.6709 22.4296 85.1798 22.086 84.7824 21.6466V26.83H81.617V12.1172H84.7824V13.103C85.1803 12.6649 85.6718 12.3229 86.22 12.1026C86.7681 11.8824 87.3588 11.7895 87.9477 11.831C88.6398 11.8623 89.319 12.0303 89.9465 12.3253C90.574 12.6203 91.1375 13.0366 91.6049 13.5504C92.0722 14.0642 92.4342 14.6655 92.6703 15.3199C92.9063 15.9742 93.0118 16.6689 92.9806 17.3642ZM89.8153 17.3642C89.8028 16.8719 89.646 16.3942 89.3644 15.9911C89.0829 15.5879 88.6891 15.2772 88.2326 15.0979C87.776 14.9186 87.2769 14.8787 86.7979 14.9831C86.3188 15.0876 85.8811 15.3318 85.5396 15.6851C85.1981 16.0384 84.968 16.4851 84.8781 16.9692C84.7883 17.4534 84.8426 17.9534 85.0344 18.4066C85.2262 18.8598 85.5469 19.2461 85.9563 19.517C86.3657 19.7879 86.8455 19.9313 87.3357 19.9294C87.6715 19.9437 88.0065 19.8866 88.3187 19.7617C88.631 19.6368 88.9134 19.4471 89.1475 19.2049C89.3817 18.9627 89.5622 18.6735 89.6773 18.3563C89.7923 18.039 89.8394 17.701 89.8153 17.3642Z" fill="#1D2130"/>
<path d="M102.614 19.463C102.614 21.8798 100.504 22.908 98.2667 22.908C97.3544 22.9905 96.4384 22.7962 95.6371 22.3502C94.8359 21.9043 94.1861 21.2272 93.7719 20.4064L96.4941 18.8588C96.602 19.237 96.8358 19.5666 97.1566 19.7923C97.4773 20.0181 97.8655 20.1263 98.2562 20.099C99.0053 20.099 99.3851 19.8658 99.3851 19.4418C99.3851 18.2864 94.2467 18.9012 94.2467 15.2654C94.2467 12.9758 96.167 11.831 98.3406 11.831C99.1668 11.7938 99.9876 11.9821 100.716 12.3759C101.444 12.7697 102.053 13.3543 102.477 14.0676L99.7544 15.5092C99.6342 15.2357 99.4377 15.0031 99.1886 14.8394C98.9396 14.6758 98.6487 14.5881 98.3511 14.587C97.8025 14.587 97.4754 14.799 97.4754 15.17C97.4754 16.3784 102.614 15.5834 102.614 19.463Z" fill="#1D2130"/>
<path d="M114.083 12.1172V22.6112H110.917V21.6254C110.558 22.0618 110.101 22.4071 109.584 22.6336C109.068 22.8601 108.505 22.9613 107.942 22.9292C105.832 22.9292 104.028 21.4134 104.028 18.5832V12.1172H107.193V18.1062C107.168 18.3566 107.198 18.6094 107.279 18.8472C107.361 19.085 107.494 19.3021 107.667 19.4836C107.841 19.665 108.051 19.8064 108.285 19.898C108.518 19.9896 108.768 20.0293 109.018 20.0142C110.158 20.0142 110.96 19.3358 110.96 17.8942V12.1172H114.083Z" fill="#1D2130"/>
<path d="M132.02 16.1664V22.6112H128.854V16.442C128.854 15.382 128.359 14.7248 127.356 14.7248C126.354 14.7248 125.721 15.4562 125.721 16.6964V22.6112H122.555V16.442C122.555 15.382 122.059 14.7248 121.057 14.7248C120.055 14.7248 119.422 15.4562 119.422 16.6964V22.6112H116.256V12.1172H119.422V13.0818C119.749 12.6556 120.178 12.3181 120.668 12.0997C121.157 11.8814 121.694 11.789 122.228 11.831C122.764 11.8029 123.297 11.9152 123.776 12.1568C124.255 12.3984 124.664 12.761 124.961 13.209C125.309 12.7409 125.769 12.369 126.298 12.128C126.828 11.8871 127.41 11.7849 127.989 11.831C130.458 11.831 132.02 13.5482 132.02 16.1664Z" fill="#1D2130"/>
<path d="M14.3219 4.5382V0.0332031H0.18335V30.9852H14.3219V26.4802C11.4256 26.4802 8.64794 25.3243 6.59997 23.2669C4.55199 21.2094 3.40145 18.4189 3.40145 15.5092C3.40145 12.5995 4.55199 9.80899 6.59997 7.75153C8.64794 5.69407 11.4256 4.5382 14.3219 4.5382Z" fill="#1D2130"/>
<path d="M14.3219 4.5382V26.4802C17.2182 26.4802 19.9957 25.3243 22.0437 23.2669C24.0917 21.2094 25.2422 18.4189 25.2422 15.5092C25.2422 12.5995 24.0917 9.809 22.0437 7.75154C19.9957 5.69407 17.2182 4.5382 14.3219 4.5382Z" fill="#1D2130"/>
<path d="M134.679 12.0536C135.961 12.0536 137 11.0095 137 9.72157C137 8.43365 135.961 7.38957 134.679 7.38957C133.397 7.38957 132.357 8.43365 132.357 9.72157C132.357 11.0095 133.397 12.0536 134.679 12.0536Z" fill="#1D2130"/>
</g>
</svg>
