<svg width="134" height="32" viewBox="0 0 134 32" fill="none" xmlns="http://www.w3.org/2000/svg">
<g opacity="0.6">
<path d="M38.1576 9.48191H41.5445V23.1319H38.1576V9.48191ZM42.8951 17.9974C42.8951 14.6164 45.0053 12.5899 48.1706 12.5899C51.336 12.5899 53.4462 14.6164 53.4462 17.9974C53.4462 21.3784 51.4098 23.4259 48.1706 23.4259C44.9314 23.4259 42.8951 21.4519 42.8951 17.9974ZM50.091 17.9974C50.091 16.1389 49.3629 15.0469 48.2023 15.0469C47.0417 15.0469 46.3242 16.0969 46.3242 17.9974C46.3242 19.8979 47.0417 20.9374 48.2023 20.9374C49.3629 20.9374 50.1121 19.8979 50.1121 18.0079L50.091 17.9974ZM54.7968 23.8354H58.0676C58.2165 24.1858 58.4766 24.4782 58.8081 24.6678C59.1396 24.8573 59.5243 24.9338 59.9035 24.8854C61.2013 24.8854 61.8766 24.1924 61.8766 23.1634V21.2734H61.8871C61.6076 21.8619 61.1557 22.3524 60.5907 22.6804C60.0257 23.0084 59.3741 23.1585 58.7218 23.1109C56.2423 23.1109 54.5963 21.2314 54.5963 17.9974C54.5963 14.7634 56.1684 12.7474 58.8167 12.7474C59.4858 12.7118 60.1495 12.8835 60.7164 13.2389C61.2833 13.5943 61.7255 14.116 61.9821 14.7319H61.8871V12.8314H65.2424V23.0584C65.2424 25.5259 63.0478 27.0694 59.8191 27.0694C56.8859 27.0589 55.0078 25.7254 54.8179 23.8459L54.7968 23.8354ZM61.8871 17.9974C61.8871 16.3489 61.1274 15.3094 59.9246 15.3094C58.7218 15.3094 57.9832 16.3594 57.9832 17.9974C57.9832 19.6354 58.7112 20.6014 59.9246 20.6014C61.138 20.6014 61.8871 19.7089 61.8871 17.9974ZM66.5824 17.9974C66.5824 14.6164 68.6926 12.5899 71.8579 12.5899C75.0233 12.5899 77.1335 14.6164 77.1335 17.9974C77.1335 21.3784 75.0866 23.4259 71.8579 23.4259C68.6293 23.4259 66.6035 21.4519 66.6035 17.9974H66.5824ZM73.7783 17.9974C73.7783 16.1389 73.0397 15.0469 71.8896 15.0469C70.7395 15.0469 70.0115 16.0969 70.0115 17.9974C70.0115 19.8979 70.729 20.9374 71.8896 20.9374C73.0502 20.9374 73.7994 19.8979 73.7994 18.0079L73.7783 17.9974ZM78.5052 10.3429C78.4904 9.99958 78.5793 9.65972 78.7602 9.36703C78.9412 9.07435 79.206 8.84224 79.5206 8.70057C79.8352 8.55889 80.1852 8.51413 80.5256 8.57204C80.866 8.62995 81.1812 8.78788 81.4306 9.02552C81.68 9.26316 81.8523 9.56963 81.9253 9.90551C81.9983 10.2414 81.9686 10.5913 81.8401 10.9103C81.7116 11.2292 81.4901 11.5026 81.2041 11.6953C80.9182 11.888 80.5809 11.9911 80.2356 11.9914C80.0149 11.997 79.7953 11.9589 79.5895 11.8793C79.3837 11.7998 79.1959 11.6803 79.0369 11.528C78.8779 11.3756 78.7508 11.1933 78.6632 10.9917C78.5755 10.79 78.529 10.5731 78.5263 10.3534L78.5052 10.3429ZM78.5052 12.8209H81.9343V23.1739H78.5579L78.5052 12.8209ZM94.2686 17.9974C94.2686 21.3679 92.7492 23.3209 90.1642 23.3209C89.5024 23.3615 88.844 23.1991 88.2779 22.8554C87.7119 22.5118 87.2654 22.0036 86.9988 21.3994H86.9355V26.5024H83.5486V12.8524H86.9144V14.7004H86.9777C87.2352 14.0843 87.6773 13.5622 88.2437 13.2052C88.8101 12.8482 89.4734 12.6737 90.1431 12.7054C92.802 12.6844 94.3319 14.6269 94.3319 18.0079L94.2686 17.9974ZM90.8184 17.9974C90.8184 16.3594 90.0481 15.2989 88.8558 15.2989C87.6636 15.2989 86.9144 16.3489 86.9039 17.9974C86.8933 19.6459 87.6636 20.6854 88.8558 20.6854C90.0481 20.6854 90.8817 19.7089 90.8817 18.0079L90.8184 17.9974ZM100.051 12.5794C102.889 12.5794 104.651 13.9129 104.672 16.0549H101.581C101.581 15.3094 100.958 14.8474 100.03 14.8474C99.101 14.8474 98.6579 15.2044 98.6579 15.7399C98.6579 16.2754 99.0482 16.4434 99.829 16.6009L102.003 17.0419C104.113 17.4829 104.957 18.3229 104.957 19.8874C104.957 21.9874 103.005 23.4154 100.103 23.4154C97.2018 23.4154 95.3131 22.0294 95.176 19.9189H98.4574C98.5524 20.6854 99.1643 21.1369 100.156 21.1369C101.148 21.1369 101.612 20.8219 101.612 20.2654C101.612 19.7089 101.296 19.6144 100.483 19.4464L98.5207 19.0369C96.4843 18.6064 95.4186 17.5459 95.4186 15.9604C95.482 13.9024 97.2546 12.5899 100.114 12.5899L100.051 12.5794ZM116.299 23.1634H113.018V21.2209H112.955C112.771 21.8688 112.371 22.4351 111.82 22.8264C111.27 23.2177 110.602 23.4106 109.926 23.3734C109.417 23.3899 108.909 23.299 108.437 23.1064C107.964 22.9139 107.539 22.6242 107.187 22.2564C106.835 21.8885 106.566 21.4508 106.396 20.972C106.226 20.4931 106.16 19.984 106.202 19.4779V12.8314H109.589V18.7534C109.589 19.9714 110.232 20.6329 111.288 20.6329C111.535 20.6311 111.779 20.5764 112.004 20.4725C112.228 20.3687 112.428 20.2182 112.589 20.031C112.75 19.8439 112.869 19.6246 112.937 19.3879C113.006 19.1512 113.023 18.9026 112.986 18.6589V12.8314H116.363L116.299 23.1634ZM117.935 12.8209H121.227V14.8159H121.301C121.482 14.1768 121.872 13.6158 122.409 13.2206C122.945 12.8254 123.598 12.6184 124.265 12.6319C124.935 12.5739 125.603 12.7667 126.138 13.1726C126.672 13.5784 127.036 14.1681 127.156 14.8264H127.304C127.515 14.1646 127.94 13.5907 128.512 13.1938C129.085 12.797 129.773 12.5994 130.47 12.6319C130.933 12.6144 131.394 12.6944 131.824 12.8666C132.254 13.0389 132.643 13.2996 132.965 13.6317C133.286 13.9637 133.534 14.3596 133.691 14.7935C133.849 15.2274 133.912 15.6894 133.878 16.1494V23.1739H130.47V17.0104C130.47 15.9604 129.974 15.3724 129.013 15.3724C128.801 15.3689 128.589 15.4113 128.394 15.4967C128.199 15.582 128.025 15.7083 127.884 15.8669C127.743 16.0255 127.638 16.2126 127.576 16.4154C127.514 16.6182 127.497 16.8319 127.526 17.0419V23.1739H124.297V16.9789C124.297 15.9289 123.78 15.3724 122.852 15.3724C122.636 15.3707 122.423 15.4148 122.227 15.5018C122.03 15.5888 121.854 15.7166 121.712 15.8768C121.569 16.0369 121.462 16.2255 121.398 16.4301C121.335 16.6347 121.316 16.8505 121.343 17.0629V23.1739H117.956L117.935 12.8209Z" fill="#1D2130"/>
<path d="M31.4575 10.3745C31.4576 8.28468 30.8235 6.24355 29.6382 4.51846C28.4528 2.79337 26.7716 1.46476 24.8146 0.706655C22.8577 -0.0514509 20.7163 -0.203703 18.6709 0.269839C16.6255 0.74338 14.7715 1.82064 13.3518 3.36051H0.18396V31.0175H27.9862V18.092C29.0774 17.1207 29.9506 15.9314 30.5487 14.6016C31.1469 13.2718 31.4565 11.8314 31.4575 10.3745ZM26.1081 10.3745C26.1102 11.3759 25.8137 12.3554 25.2562 13.1891C24.6986 14.0228 23.9051 14.6731 22.976 15.0577C22.0469 15.4424 21.024 15.5441 20.0368 15.35C19.0496 15.1559 18.1424 14.6748 17.4301 13.9674C16.7178 13.26 16.2324 12.3582 16.0353 11.3762C15.8382 10.3942 15.9383 9.37607 16.3229 8.45068C16.7075 7.52529 17.3594 6.73425 18.1959 6.17767C19.0325 5.62109 20.0162 5.32401 21.0225 5.324C22.3694 5.324 23.6614 5.85577 24.6148 6.80262C25.5683 7.74947 26.1053 9.03407 26.1081 10.3745ZM22.6368 25.694H5.53339V8.68401H10.7456C10.645 9.24204 10.592 9.80757 10.5874 10.3745C10.5902 13.1278 11.6905 15.7675 13.6468 17.7144C15.6032 19.6613 18.2558 20.7562 21.0225 20.759C21.5634 20.7562 22.1032 20.7105 22.6368 20.6225V25.694Z" fill="#1D2130"/>
</g>
</svg>
