<svg width="124" height="25" viewBox="0 0 124 25" fill="none" xmlns="http://www.w3.org/2000/svg">
<g opacity="0.6">
<path d="M40.0896 20.2014C39.4654 20.2349 38.848 20.059 38.337 19.7022C38.1234 19.5453 37.9517 19.3393 37.8365 19.1019C37.7213 18.8646 37.6661 18.603 37.6758 18.3398V8.69896C37.6707 8.65815 37.6751 8.61671 37.6886 8.57782C37.702 8.53892 37.7243 8.50359 37.7537 8.47451C37.783 8.44542 37.8187 8.42336 37.8579 8.40999C37.8972 8.39662 37.939 8.39231 37.9802 8.39736H39.7433C39.9427 8.39736 40.0371 8.50136 40.0371 8.69896V17.591C40.0371 17.9862 40.2155 18.1838 40.5828 18.1838C40.7385 18.1901 40.8943 18.1726 41.0446 18.1318C41.2545 18.1318 41.3699 18.1942 41.3804 18.3814L41.5379 19.6814C41.5454 19.7193 41.5447 19.7583 41.5358 19.7959C41.5268 19.8335 41.5098 19.8688 41.4859 19.8993C41.4621 19.9299 41.4319 19.955 41.3974 19.973C41.3629 19.991 41.3249 20.0015 41.286 20.0038C40.8998 20.1302 40.4963 20.1968 40.0896 20.2014Z" fill="#1D2130"/>
<path d="M50.0071 19.0886C49.1212 19.814 48.0079 20.2108 46.8587 20.2108C45.7095 20.2108 44.5962 19.814 43.7103 19.0886C42.9316 18.3096 42.4948 17.2575 42.4948 16.161C42.4948 15.0645 42.9316 14.0124 43.7103 13.2334C44.5979 12.5118 45.7106 12.1174 46.8587 12.1174C48.0068 12.1174 49.1194 12.5118 50.0071 13.2334C50.7678 14.0196 51.1925 15.0666 51.1925 16.1558C51.1925 17.245 50.7678 18.2921 50.0071 19.0782V19.0886ZM45.3684 17.7158C45.7796 18.0849 46.3145 18.2893 46.8692 18.2893C47.4239 18.2893 47.9588 18.0849 48.3699 17.7158C48.742 17.2919 48.9469 16.7489 48.9469 16.187C48.9469 15.6251 48.742 15.0822 48.3699 14.6582C47.9588 14.2892 47.4239 14.0848 46.8692 14.0848C46.3145 14.0848 45.7796 14.2892 45.3684 14.6582C44.9963 15.0822 44.7914 15.6251 44.7914 16.187C44.7914 16.7489 44.9963 17.2919 45.3684 17.7158Z" fill="#1D2130"/>
<path d="M60.9006 12.3806C61.1 12.3806 61.1945 12.4846 61.1945 12.6822V20.139C61.2128 20.6422 61.1178 21.1433 60.9162 21.6056C60.7147 22.0679 60.4118 22.48 60.0295 22.8118C59.181 23.5288 58.0897 23.9004 56.9756 23.8518C55.9693 23.8868 54.9764 23.6145 54.1315 23.0718C53.7707 22.837 53.4625 22.5312 53.226 22.1733C52.9895 21.8155 52.8297 21.4133 52.7567 20.9918C52.7567 20.7838 52.7567 20.6902 53.0401 20.6902H54.8032C54.878 20.6927 54.9506 20.7166 55.012 20.7591C55.0734 20.8015 55.1212 20.8606 55.1495 20.9294C55.2638 21.2452 55.4918 21.5082 55.7897 21.6678C56.1527 21.8534 56.5567 21.9463 56.9651 21.9382C57.2115 21.9515 57.4581 21.9161 57.6906 21.834C57.923 21.7518 58.1366 21.6246 58.3189 21.4598C58.4854 21.2873 58.615 21.0832 58.6997 20.8598C58.7845 20.6363 58.8228 20.3982 58.8122 20.1598V19.5046C58.1809 19.9647 57.4126 20.2026 56.6292 20.1806C56.081 20.2003 55.5344 20.1101 55.0222 19.9153C54.51 19.7205 54.0429 19.4251 53.6488 19.047C52.8921 18.2713 52.4692 17.2346 52.4692 16.1558C52.4692 15.0769 52.8921 14.0403 53.6488 13.2646C54.0448 12.8897 54.5125 12.5972 55.0244 12.4043C55.5363 12.2114 56.082 12.122 56.6292 12.1414C57.4352 12.1203 58.2242 12.3735 58.8646 12.859V12.6926C58.8598 12.6527 58.864 12.6123 58.8769 12.5742C58.8898 12.5362 58.9111 12.5015 58.9393 12.4726C58.9674 12.4437 59.0017 12.4214 59.0396 12.4073C59.0775 12.3932 59.1181 12.3876 59.1585 12.391L60.9006 12.3806ZM56.8287 18.3294C57.099 18.3377 57.3679 18.287 57.6164 18.181C57.8648 18.0749 58.0867 17.9161 58.2664 17.7158C58.6153 17.2692 58.8047 16.7205 58.8047 16.1558C58.8047 15.591 58.6153 15.0423 58.2664 14.5958C58.0874 14.3981 57.8668 14.2417 57.6202 14.1375C57.3737 14.0333 57.1071 13.9838 56.8391 13.9926C56.5657 13.984 56.2936 14.0345 56.0417 14.1404C55.7898 14.2464 55.5642 14.4053 55.3804 14.6062C54.9939 15.0333 54.7906 15.5929 54.8137 16.1662C54.7947 16.7338 54.9935 17.2875 55.3699 17.7158C55.5541 17.9161 55.7798 18.0746 56.0316 18.1805C56.2834 18.2864 56.5553 18.3372 56.8287 18.3294Z" fill="#1D2130"/>
<path d="M70.2514 19.0886C69.3637 19.8102 68.2511 20.2046 67.1029 20.2046C65.9548 20.2046 64.8422 19.8102 63.9545 19.0886C63.1931 18.3007 62.7681 17.2519 62.7681 16.161C62.7681 15.0701 63.1931 14.0213 63.9545 13.2334C64.843 12.5136 65.9553 12.1204 67.1029 12.1204C68.2505 12.1204 69.3629 12.5136 70.2514 13.2334C71.0121 14.0195 71.4368 15.0666 71.4368 16.1558C71.4368 17.245 71.0121 18.292 70.2514 19.0782V19.0886ZM65.6022 17.7158C65.8034 17.9054 66.0406 18.0537 66.3 18.1518C66.5594 18.25 66.8359 18.2962 67.1134 18.2878C67.3892 18.2948 67.6638 18.248 67.9213 18.1498C68.1788 18.0517 68.4142 17.9042 68.6142 17.7158C68.9802 17.289 69.1812 16.7471 69.1812 16.187C69.1812 15.6268 68.9802 15.085 68.6142 14.6582C68.4142 14.4698 68.1788 14.3223 67.9213 14.2241C67.6638 14.126 67.3892 14.0791 67.1134 14.0862C66.8359 14.0777 66.5594 14.1239 66.3 14.2221C66.0406 14.3203 65.8034 14.4685 65.6022 14.6582C65.2362 15.085 65.0352 15.6268 65.0352 16.187C65.0352 16.7471 65.2362 17.289 65.6022 17.7158Z" fill="#1D2130"/>
<path d="M75.2259 10.6126C74.9485 10.8532 74.5923 10.9859 74.2236 10.9859C73.855 10.9859 73.4988 10.8532 73.2214 10.6126C73.0956 10.495 72.9954 10.3531 72.9269 10.1957C72.8584 10.0384 72.8231 9.86879 72.8231 9.6974C72.8231 9.52602 72.8584 9.35644 72.9269 9.19906C72.9954 9.04169 73.0956 8.89984 73.2214 8.7822C73.5017 8.54759 73.8568 8.41888 74.2236 8.41888C74.5906 8.41888 74.9456 8.54759 75.2259 8.7822C75.3517 8.89984 75.4519 9.04169 75.5204 9.19906C75.5889 9.35644 75.6242 9.52602 75.6242 9.6974C75.6242 9.86879 75.5889 10.0384 75.5204 10.1957C75.4519 10.3531 75.3517 10.495 75.2259 10.6126ZM75.4463 20.2014C74.8224 20.2317 74.2061 20.0562 73.6937 19.7022C73.4834 19.543 73.3146 19.3363 73.2014 19.0993C73.0882 18.8623 73.0339 18.6019 73.043 18.3398V12.6822C73.0379 12.6414 73.0423 12.6 73.0557 12.5611C73.0692 12.5222 73.0915 12.4868 73.1208 12.4578C73.1502 12.4287 73.1859 12.4066 73.2251 12.3932C73.2644 12.3799 73.3062 12.3755 73.3473 12.3806H75.1105C75.3099 12.3806 75.4043 12.4846 75.4043 12.6822V17.591C75.4043 17.9862 75.5827 18.1838 75.9395 18.1838C76.0987 18.1895 76.2578 18.172 76.4118 18.1318C76.6217 18.1318 76.7371 18.1942 76.7476 18.3814L76.9051 19.6814C76.9126 19.7193 76.9119 19.7584 76.9029 19.796C76.894 19.8336 76.877 19.8688 76.8531 19.8994C76.8293 19.9299 76.7991 19.9551 76.7646 19.9731C76.7301 19.9911 76.6921 20.0016 76.6532 20.0038C76.2636 20.1309 75.8565 20.1976 75.4463 20.2014Z" fill="#1D2130"/>
<path d="M83.3909 12.131C83.9416 12.1095 84.4911 12.1978 85.0067 12.3907C85.5223 12.5837 85.9935 12.8773 86.3924 13.2542C87.1345 14.0435 87.5471 15.0822 87.5471 16.161C87.5471 17.2398 87.1345 18.2785 86.3924 19.0678C85.9954 19.4481 85.5248 19.7446 85.0089 19.9394C84.493 20.1343 83.9425 20.2234 83.3909 20.2014C82.605 20.2187 81.8349 19.9814 81.1975 19.5254V23.2798C81.1975 23.4774 81.0925 23.571 80.8931 23.571H79.13C79.0898 23.5785 79.0483 23.5761 79.0092 23.5641C78.9702 23.5521 78.9346 23.5308 78.9057 23.5022C78.8767 23.4735 78.8553 23.4383 78.8432 23.3995C78.8311 23.3608 78.8287 23.3197 78.8362 23.2798V14.7518C78.8485 14.6684 78.841 14.5833 78.8143 14.5033C78.7875 14.4232 78.7423 14.3505 78.6821 14.2909C78.622 14.2313 78.5486 14.1864 78.4678 14.1599C78.3871 14.1334 78.3012 14.126 78.217 14.1382H77.8707C77.6398 14.1382 77.5243 14.055 77.5243 13.8886V12.6614C77.5189 12.5855 77.5399 12.51 77.5838 12.4475C77.6277 12.3851 77.6919 12.3394 77.7657 12.3182C78.1287 12.1875 78.5129 12.124 78.8991 12.131C79.2843 12.0972 79.6708 12.1782 80.0092 12.3635C80.3476 12.5487 80.6225 12.8299 80.7987 13.171C81.1367 12.8322 81.5409 12.5652 81.9866 12.3863C82.4323 12.2075 82.9101 12.1207 83.3909 12.131ZM81.7537 17.7158C81.9408 17.9096 82.1656 18.0639 82.4145 18.1692C82.6634 18.2746 82.9313 18.3289 83.202 18.3289C83.4726 18.3289 83.7405 18.2746 83.9894 18.1692C84.2383 18.0639 84.4631 17.9096 84.6502 17.7158C85.0444 17.2802 85.2515 16.7093 85.2275 16.1246C85.2549 15.5395 85.0474 14.9673 84.6502 14.5334C84.4631 14.3396 84.2383 14.1854 83.9894 14.08C83.7405 13.9747 83.4726 13.9203 83.202 13.9203C82.9313 13.9203 82.6634 13.9747 82.4145 14.08C82.1656 14.1854 81.9408 14.3396 81.7537 14.5334C81.3718 14.975 81.1731 15.5436 81.1975 16.1246C81.1762 16.7052 81.3746 17.2727 81.7537 17.7158Z" fill="#1D2130"/>
<path d="M92.5002 20.2014C91.5581 20.2397 90.6239 20.0164 89.803 19.5566C89.4737 19.36 89.1932 19.0924 88.9825 18.7737C88.7717 18.4551 88.6361 18.0935 88.5857 17.7158C88.5857 17.5078 88.6591 17.4038 88.89 17.4038H90.4327C90.5061 17.4066 90.5773 17.4295 90.6384 17.4698C90.6995 17.5102 90.7482 17.5665 90.7791 17.6326C90.9994 18.1942 91.5767 18.475 92.5002 18.475C92.8223 18.4895 93.1431 18.4252 93.4342 18.2878C93.5347 18.2428 93.6209 18.1716 93.6838 18.0819C93.7466 17.9921 93.7837 17.8872 93.791 17.7782C93.791 17.5078 93.6231 17.3206 93.2873 17.1958C92.889 17.0644 92.4771 16.9772 92.0594 16.9358C91.5646 16.8802 91.0738 16.7934 90.5901 16.6758C90.1198 16.5703 89.6921 16.3276 89.3623 15.979C89.168 15.742 89.025 15.468 88.9422 15.174C88.8593 14.8799 88.8384 14.5721 88.8808 14.2698C88.9231 13.9674 89.0277 13.6768 89.1882 13.4162C89.3487 13.1556 89.5615 12.9306 89.8135 12.755C90.57 12.2774 91.4575 12.0448 92.3533 12.0894C93.2205 12.0603 94.0786 12.2729 94.83 12.703C95.1328 12.8729 95.3936 13.1077 95.5933 13.3902C95.793 13.6726 95.9266 13.9957 95.9844 14.3358C95.9844 14.5438 95.89 14.6478 95.7011 14.6478H94.1479C94.0825 14.6516 94.0174 14.6358 93.9612 14.6024C93.9051 14.569 93.8604 14.5195 93.833 14.4606C93.7292 14.2142 93.5338 14.0169 93.2873 13.9094C93.0092 13.7651 92.6985 13.6936 92.3847 13.7014C92.0771 13.6848 91.7702 13.7456 91.4927 13.8782C91.3949 13.9155 91.3107 13.9811 91.2508 14.0664C91.1909 14.1516 91.1582 14.2527 91.1569 14.3566C91.1636 14.4988 91.2161 14.6351 91.3068 14.7456C91.3974 14.856 91.5215 14.9347 91.6606 14.9702C92.0636 15.1207 92.4826 15.2253 92.9095 15.2822C93.4003 15.3462 93.8873 15.4364 94.3683 15.5526C94.8386 15.6581 95.2663 15.9008 95.5961 16.2494C95.7726 16.4414 95.9089 16.6662 95.9972 16.9108C96.0854 17.1553 96.1239 17.4148 96.1104 17.6742C96.1194 18.0337 96.0343 18.3894 95.8632 18.7065C95.6921 19.0237 95.441 19.2915 95.1344 19.4838C94.3503 19.9826 93.4314 20.2329 92.5002 20.2014Z" fill="#1D2130"/>
<path d="M107.203 19.6814C107.209 19.7183 107.208 19.756 107.199 19.7923C107.19 19.8287 107.174 19.8628 107.151 19.8929C107.129 19.9229 107.1 19.9482 107.068 19.9672C107.035 19.9863 106.999 19.9987 106.962 20.0038C106.579 20.1277 106.179 20.1943 105.776 20.2014C105.377 20.2423 104.974 20.1805 104.607 20.022C104.239 19.8635 103.919 19.6136 103.677 19.2966C102.936 19.9282 101.977 20.2522 101.001 20.2014C100.548 20.2221 100.095 20.1486 99.6721 19.9856C99.2492 19.8226 98.8653 19.5737 98.5452 19.255C98.2273 18.921 97.9808 18.5268 97.8203 18.0962C97.6598 17.6655 97.5887 17.2071 97.6112 16.7486V12.6822C97.6112 12.4846 97.7056 12.3806 97.905 12.3806H99.6682C99.8676 12.3806 99.962 12.4846 99.962 12.6822V16.4366C99.9428 16.9043 100.104 17.3617 100.413 17.7158C100.568 17.8779 100.755 18.0055 100.963 18.0898C101.171 18.1741 101.395 18.2133 101.62 18.2046C101.85 18.2145 102.08 18.1792 102.296 18.1007C102.512 18.0221 102.711 17.9019 102.88 17.747C103.039 17.5836 103.164 17.3896 103.245 17.1767C103.326 16.9638 103.363 16.7367 103.352 16.5094V12.6822C103.352 12.4846 103.446 12.3806 103.646 12.3806H105.43C105.629 12.3806 105.724 12.4846 105.724 12.6822V17.5806C105.724 17.9862 105.902 18.1838 106.248 18.1838C106.411 18.19 106.574 18.1725 106.731 18.1318C106.771 18.1207 106.812 18.1188 106.853 18.126C106.894 18.1332 106.932 18.1494 106.965 18.1734C106.999 18.1975 107.026 18.2286 107.045 18.2647C107.065 18.3007 107.076 18.3406 107.077 18.3814L107.203 19.6814Z" fill="#1D2130"/>
<path d="M123.879 19.6814C123.889 19.7186 123.89 19.7575 123.882 19.7951C123.874 19.8327 123.859 19.8682 123.835 19.8991C123.812 19.9299 123.783 19.9553 123.749 19.9734C123.714 19.9915 123.677 20.0019 123.638 20.0038C123.248 20.1295 122.841 20.1961 122.431 20.2014C121.807 20.2333 121.19 20.0576 120.679 19.7022C120.457 19.55 120.277 19.346 120.155 19.1083C120.032 18.8707 119.97 18.6067 119.975 18.3398V15.8958C119.997 15.4294 119.84 14.9722 119.535 14.6166C119.387 14.4541 119.206 14.3259 119.002 14.2414C118.799 14.1569 118.579 14.1181 118.359 14.1278C118.161 14.1204 117.963 14.1577 117.781 14.237C117.6 14.3162 117.438 14.4354 117.31 14.5854C117.033 14.9339 116.891 15.3694 116.911 15.8126V19.6502C116.911 19.8478 116.816 19.9518 116.617 19.9518H114.843C114.802 19.9569 114.76 19.9525 114.721 19.9392C114.682 19.9258 114.646 19.9037 114.617 19.8747C114.588 19.8456 114.565 19.8102 114.552 19.7713C114.538 19.7325 114.534 19.691 114.539 19.6502V15.8958C114.562 15.4345 114.417 14.9805 114.13 14.6166C114.002 14.4637 113.841 14.3407 113.66 14.2562C113.479 14.1717 113.281 14.1279 113.08 14.1278C112.866 14.1192 112.653 14.1556 112.454 14.2344C112.255 14.3133 112.075 14.4329 111.926 14.5854C111.626 14.9228 111.471 15.3635 111.496 15.8126V19.6502C111.501 19.691 111.496 19.7325 111.483 19.7713C111.469 19.8102 111.447 19.8456 111.418 19.8747C111.388 19.9037 111.353 19.9258 111.314 19.9392C111.274 19.9525 111.232 19.9569 111.191 19.9518H109.481C109.281 19.9518 109.187 19.8478 109.187 19.6502V14.7518C109.199 14.6684 109.192 14.5833 109.165 14.5032C109.138 14.4232 109.093 14.3505 109.033 14.2909C108.973 14.2313 108.899 14.1864 108.818 14.1599C108.738 14.1334 108.652 14.126 108.568 14.1382H108.221C107.99 14.1382 107.875 14.055 107.875 13.8886V12.6614C107.869 12.5855 107.89 12.51 107.934 12.4475C107.978 12.3851 108.043 12.3394 108.116 12.3182C108.479 12.1874 108.864 12.124 109.25 12.131C109.62 12.0997 109.993 12.1729 110.323 12.3422C110.654 12.5115 110.929 12.77 111.118 13.0878C111.472 12.7553 111.891 12.4987 112.35 12.334C112.809 12.1694 113.297 12.1003 113.783 12.131C114.256 12.1081 114.728 12.196 115.16 12.3876C115.592 12.5791 115.973 12.8689 116.271 13.2334C116.618 12.8593 117.045 12.5664 117.52 12.3757C117.996 12.1851 118.508 12.1015 119.02 12.131C119.478 12.1098 119.936 12.1829 120.364 12.3458C120.792 12.5087 121.182 12.7578 121.508 13.0774C121.826 13.4107 122.074 13.8047 122.234 14.2356C122.395 14.6664 122.465 15.1251 122.442 15.5838V17.591C122.442 17.9862 122.62 18.1838 122.956 18.1838C123.119 18.1913 123.281 18.1738 123.439 18.1318C123.656 18.1318 123.771 18.215 123.785 18.3814L123.879 19.6814Z" fill="#1D2130"/>
<path d="M0.818406 11.0286C1.59267 7.94468 3.38586 5.2061 5.91244 3.24892C8.43902 1.29175 11.5537 0.228516 14.7606 0.228516C17.9675 0.228516 21.0822 1.29175 23.6088 3.24892C26.1354 5.2061 27.9286 7.94468 28.7029 11.0286H27.4435C25.319 10.9976 23.2381 11.6268 21.493 12.8278C21.3923 12.9001 21.2871 12.9661 21.1782 13.0254H21.0312C20.9223 12.9661 20.8171 12.9001 20.7164 12.8278C18.9558 11.6546 16.8823 11.028 14.7606 11.028C12.639 11.028 10.5655 11.6546 8.80488 12.8278C8.70417 12.9001 8.59902 12.9661 8.49004 13.0254H8.34312C8.23414 12.9661 8.12899 12.9001 8.02828 12.8278C6.28314 11.6268 4.20224 10.9976 2.07777 11.0286H0.818406ZM25.1766 17.5494C25.8231 17.0505 26.6244 16.7895 27.4435 16.811H29.1331V13.4726H27.4435C26.0007 13.4553 24.5909 13.9004 23.424 14.7414C22.7674 15.2212 21.973 15.48 21.1572 15.48C20.3413 15.48 19.547 15.2212 18.8903 14.7414C17.6938 13.916 16.2709 13.4736 14.8131 13.4736C13.3553 13.4736 11.9324 13.916 10.7359 14.7414C10.0793 15.2212 9.28487 15.48 8.46905 15.48C7.65324 15.48 6.85885 15.2212 6.2022 14.7414C5.02091 13.8896 3.59089 13.444 2.13024 13.4726H0.388123V16.811H2.07777C2.89689 16.7895 3.69814 17.0505 4.34463 17.5494C5.53894 18.3753 6.96022 18.8182 8.41658 18.8182C9.87294 18.8182 11.2942 18.3753 12.4885 17.5494C13.1358 17.052 13.9365 16.7912 14.7554 16.811C15.5748 16.7878 16.3766 17.0489 17.0222 17.5494C18.2187 18.3748 19.6416 18.8173 21.0994 18.8173C22.5573 18.8173 23.9802 18.3748 25.1766 17.5494ZM25.1766 23.519C25.8231 23.0201 26.6244 22.7591 27.4435 22.7806H29.1331V19.4422H27.4435C26.0007 19.4249 24.5909 19.87 23.424 20.711C22.7674 21.1908 21.973 21.4496 21.1572 21.4496C20.3413 21.4496 19.547 21.1908 18.8903 20.711C17.6938 19.8857 16.2709 19.4432 14.8131 19.4432C13.3553 19.4432 11.9324 19.8857 10.7359 20.711C10.0793 21.1908 9.28487 21.4496 8.46905 21.4496C7.65324 21.4496 6.85885 21.1908 6.2022 20.711C5.02091 19.8592 3.59089 19.4136 2.13024 19.4422H0.388123V22.7806H2.07777C2.89689 22.7591 3.69814 23.0201 4.34463 23.519C5.53894 24.3449 6.96022 24.7878 8.41658 24.7878C9.87294 24.7878 11.2942 24.3449 12.4885 23.519C13.1358 23.0216 13.9365 22.7608 14.7554 22.7806C15.5748 22.7574 16.3766 23.0185 17.0222 23.519C18.2187 24.3444 19.6416 24.7869 21.0994 24.7869C22.5573 24.7869 23.9802 24.3444 25.1766 23.519Z" fill="#1D2130"/>
</g>
</svg>
