<svg width="143" height="29" viewBox="0 0 143 29" fill="none" xmlns="http://www.w3.org/2000/svg">
<g opacity="0.6">
<path d="M21.3558 12.7979C20.9581 13.1983 20.6535 13.6814 20.4638 14.213C20.274 14.7446 20.2038 15.3115 20.2581 15.8734L20.2392 15.8545C20.295 16.5158 20.2058 17.1814 19.978 17.8047C19.7502 18.428 19.3891 18.9941 18.92 19.4634C18.451 19.9327 17.8852 20.2939 17.2622 20.5219C16.6391 20.7498 15.9739 20.839 15.3129 20.7832L15.3318 20.8021C14.5411 20.7284 13.7469 20.9006 13.0576 21.295C12.3683 21.6895 11.8173 22.2871 11.4799 23.0063C11.1424 23.7255 11.0349 24.5314 11.172 25.314C11.3091 26.0966 11.6841 26.8178 12.2459 27.3793C12.8076 27.9409 13.5289 28.3154 14.3112 28.4519C15.0935 28.5883 15.8989 28.48 16.6174 28.1418C17.336 27.8035 17.9328 27.2517 18.3264 26.5617C18.7201 25.8717 18.8914 25.077 18.8171 24.286L18.8371 24.3049C18.7813 23.6435 18.8704 22.978 19.0982 22.3546C19.3261 21.7313 19.6871 21.1652 20.1562 20.6959C20.6253 20.2266 21.191 19.8654 21.8141 19.6374C22.4371 19.4095 23.1023 19.3203 23.7633 19.3762L23.7434 19.3573C24.3893 19.4154 25.0394 19.3094 25.6335 19.0492C26.2276 18.789 26.7464 18.383 27.1419 17.8688C27.5373 17.3546 27.7967 16.7488 27.8958 16.1076C27.995 15.4664 27.9308 14.8105 27.7091 14.2007C27.4874 13.591 27.1155 13.0471 26.6278 12.6194C26.1401 12.1918 25.5524 11.8942 24.9192 11.7543C24.2859 11.6144 23.6276 11.6367 23.0052 11.8191C22.3829 12.0016 21.8166 12.3382 21.359 12.7979H21.3558Z" fill="#1D2130"/>
<path d="M13.6137 18.3261L13.5938 18.3072C14.1556 18.3638 14.723 18.2949 15.2549 18.1052C15.7868 17.9156 16.2699 17.6101 16.6694 17.2108C17.0688 16.8114 17.3745 16.3283 17.5645 15.7963C17.7544 15.2642 17.8238 14.6966 17.7676 14.1345L17.7875 14.1534C17.7317 13.4921 17.8209 12.8265 18.0487 12.2032C18.2765 11.5799 18.6376 11.0138 19.1067 10.5445C19.5757 10.0752 20.1415 9.71395 20.7645 9.486C21.3876 9.25805 22.0528 9.16887 22.7138 9.2247L22.6939 9.2058C23.4846 9.2801 24.2791 9.10854 24.9688 8.71451C25.6585 8.32048 26.21 7.72318 26.5479 7.00407C26.8859 6.28495 26.9939 5.47905 26.8572 4.69626C26.7205 3.91348 26.3458 3.19194 25.7842 2.63004C25.2226 2.06815 24.5014 1.69327 23.719 1.55653C22.9366 1.41979 22.1311 1.52784 21.4123 1.86596C20.6936 2.20408 20.0966 2.7558 19.7027 3.44587C19.3089 4.13593 19.1374 4.93075 19.2117 5.7219L19.1928 5.70195C19.2488 6.36334 19.1598 7.02898 18.932 7.65238C18.7042 8.27579 18.3432 8.84194 17.8741 9.31128C17.405 9.78063 16.8391 10.1419 16.216 10.3697C15.5929 10.5976 14.9276 10.6867 14.2665 10.6307L14.2854 10.6506C13.7236 10.594 13.1562 10.663 12.6243 10.8526C12.0924 11.0422 11.6093 11.3477 11.2098 11.7471C10.8104 12.1464 10.5047 12.6295 10.3147 13.1615C10.1248 13.6936 10.0554 14.2612 10.1116 14.8233L10.0927 14.8044C10.1483 15.4657 10.0591 16.1312 9.83118 16.7544C9.60328 17.3777 9.24222 17.9437 8.77319 18.4129C8.30416 18.8822 7.73844 19.2434 7.11551 19.4714C6.49258 19.6994 5.82743 19.7888 5.16645 19.7331L5.18534 19.752C4.39458 19.6777 3.60015 19.8493 2.91043 20.2433C2.2207 20.6373 1.66925 21.2346 1.3313 21.9537C0.993348 22.6729 0.885342 23.4788 1.02202 24.2615C1.15869 25.0443 1.53339 25.7659 2.09501 26.3278C2.65662 26.8897 3.37781 27.2645 4.16021 27.4013C4.94261 27.538 5.74812 27.43 6.46688 27.0918C7.18563 26.7537 7.78264 26.202 8.17648 25.5119C8.57031 24.8219 8.74179 24.0271 8.66753 23.2359L8.68747 23.2548C8.63167 22.5935 8.7208 21.9279 8.94864 21.3046C9.17647 20.6813 9.53753 20.1152 10.0066 19.6459C10.4757 19.1766 11.0415 18.8154 11.6645 18.5874C12.2875 18.3595 12.9527 18.2703 13.6137 18.3261Z" fill="#1D2130"/>
<path d="M6.58015 16.2188C6.97793 15.8185 7.28248 15.3353 7.47205 14.8037C7.66163 14.2721 7.73156 13.7051 7.67686 13.1433L7.6968 13.1622C7.64096 12.5007 7.73013 11.8349 7.95809 11.2115C8.18605 10.588 8.54729 10.0218 9.0166 9.55245C9.48591 9.08311 10.052 8.72192 10.6752 8.49412C11.2985 8.26631 11.964 8.17738 12.6252 8.23353L12.6052 8.21464C13.3957 8.28873 14.1898 8.11707 14.8792 7.72307C15.5686 7.32907 16.1198 6.73191 16.4575 6.01302C16.7953 5.29414 16.9032 4.48852 16.7665 3.70603C16.6299 2.92354 16.2553 2.20227 15.6939 1.64059C15.1325 1.0789 14.4115 0.704133 13.6294 0.567398C12.8473 0.430663 12.0421 0.538615 11.3236 0.876529C10.605 1.21444 10.0082 1.76587 9.61437 2.45562C9.22057 3.14536 9.049 3.93985 9.12305 4.73074L9.10416 4.71183C9.15996 5.37318 9.07083 6.03874 8.84299 6.66206C8.61516 7.28538 8.2541 7.85145 7.78503 8.32076C7.31596 8.79006 6.75017 9.15129 6.12715 9.37924C5.50413 9.60719 4.8389 9.69636 4.17789 9.64053L4.19677 9.65944C3.55089 9.60148 2.90084 9.70759 2.30685 9.9679C1.71286 10.2282 1.19416 10.6343 0.79881 11.1486C0.403458 11.6629 0.144249 12.2687 0.0452039 12.9099C-0.0538415 13.551 0.0104804 14.2069 0.23221 14.8165C0.453939 15.4262 0.825902 15.9701 1.31363 16.3976C1.80136 16.8252 2.38907 17.1227 3.0223 17.2625C3.65553 17.4024 4.3138 17.38 4.9361 17.1976C5.55841 17.0151 6.12461 16.6785 6.58225 16.2188H6.58015Z" fill="#1D2130"/>
<path d="M39.09 5.74605H42.2069V20.9217H39.09V5.74605Z" fill="#1D2130"/>
<path d="M43.9722 15.7253C43.9678 14.6347 44.2871 13.5674 44.8895 12.6585C45.4919 11.7496 46.3504 11.04 47.3562 10.6196C48.362 10.1992 49.4699 10.087 50.5395 10.2971C51.6092 10.5071 52.5924 11.0301 53.3647 11.7997C54.1371 12.5693 54.6637 13.551 54.878 14.6203C55.0923 15.6896 54.9845 16.7984 54.5684 17.8064C54.1522 18.8144 53.4465 19.6762 52.5404 20.2825C51.6344 20.8889 50.5689 21.2126 49.4788 21.2126C48.7553 21.2208 48.0373 21.0847 47.3669 20.8121C46.6965 20.5396 46.0872 20.136 45.5745 19.6251C45.0618 19.1142 44.656 18.5062 44.3809 17.8366C44.1058 17.167 43.9668 16.4492 43.9722 15.7253ZM51.8685 15.7253C51.8555 15.2552 51.7043 14.7994 51.4338 14.4148C51.1633 14.0302 50.7854 13.734 50.3475 13.5631C49.9096 13.3922 49.4311 13.3542 48.9718 13.4539C48.5124 13.5536 48.0927 13.7866 47.7649 14.1237C47.4372 14.4608 47.2161 14.8871 47.1292 15.3492C47.0423 15.8114 47.0935 16.2889 47.2764 16.7221C47.4593 17.1553 47.7657 17.525 48.1575 17.7849C48.5492 18.0448 49.0088 18.1833 49.4788 18.1833C49.8007 18.1919 50.1209 18.1337 50.4192 18.0123C50.7175 17.8909 50.9874 17.709 51.2119 17.4781C51.4365 17.2472 51.6107 16.9722 51.7237 16.6705C51.8367 16.3688 51.886 16.047 51.8685 15.7253Z" fill="#1D2130"/>
<path d="M67.4082 10.5278V20.3978C67.4082 23.8901 64.6858 25.3664 61.9225 25.3664C60.9496 25.4392 59.9754 25.2426 59.1068 24.7981C58.2382 24.3536 57.5087 23.6783 56.9983 22.8464L59.6577 21.3081C59.8722 21.7418 60.214 22.0996 60.6373 22.3336C61.0606 22.5675 61.5453 22.6666 62.0264 22.6175C62.3339 22.6601 62.647 22.633 62.9427 22.5382C63.2383 22.4434 63.5088 22.2833 63.7342 22.0698C63.9596 21.8562 64.1342 21.5947 64.2449 21.3046C64.3557 21.0144 64.3998 20.7031 64.3741 20.3936V19.4433C64.0091 19.8901 63.5445 20.2451 63.0176 20.4798C62.4907 20.7145 61.9161 20.8223 61.34 20.7947C59.9692 20.7514 58.669 20.1762 57.7146 19.1907C56.7602 18.2053 56.2265 16.8869 56.2265 15.5148C56.2265 14.1426 56.7602 12.8242 57.7146 11.8388C58.669 10.8533 59.9692 10.2781 61.34 10.2348C61.9161 10.2072 62.4907 10.315 63.0176 10.5497C63.5445 10.7844 64.0091 11.1394 64.3741 11.5862V10.5257L67.4082 10.5278ZM64.3752 15.5163C64.3961 15.0138 64.2662 14.5164 64.0023 14.0883C63.7383 13.6602 63.3523 13.3209 62.894 13.1141C62.4357 12.9073 61.926 12.8425 61.4306 12.928C60.9351 13.0135 60.4766 13.2453 60.1139 13.5937C59.7513 13.9422 59.5012 14.3912 59.3958 14.883C59.2904 15.3748 59.3345 15.887 59.5225 16.3535C59.7105 16.82 60.0337 17.2196 60.4506 17.5008C60.8674 17.782 61.3589 17.9319 61.8616 17.9313C62.1891 17.9542 62.5178 17.9082 62.8264 17.7963C63.1351 17.6843 63.4169 17.509 63.6536 17.2815C63.8904 17.054 64.0769 16.7793 64.2012 16.4753C64.3255 16.1713 64.3847 15.8446 64.3752 15.5163Z" fill="#1D2130"/>
<path d="M69.1734 15.7253C69.169 14.6347 69.4882 13.5674 70.0907 12.6585C70.6931 11.7496 71.5516 11.04 72.5574 10.6196C73.5632 10.1992 74.6711 10.087 75.7407 10.2971C76.8103 10.5071 77.7936 11.0301 78.5659 11.7997C79.3382 12.5693 79.8649 13.551 80.0792 14.6203C80.2934 15.6896 80.1857 16.7984 79.7695 17.8064C79.3534 18.8144 78.6476 19.6762 77.7416 20.2825C76.8356 20.8889 75.77 21.2126 74.68 21.2126C73.9564 21.2208 73.2385 21.0847 72.5681 20.8121C71.8977 20.5396 71.2884 20.136 70.7757 19.6251C70.2629 19.1142 69.8572 18.5062 69.5821 17.8366C69.307 17.167 69.168 16.4492 69.1734 15.7253ZM77.0697 15.7253C77.0567 15.2552 76.9055 14.7994 76.6349 14.4148C76.3644 14.0302 75.9866 13.734 75.5487 13.5631C75.1108 13.3922 74.6323 13.3542 74.1729 13.4539C73.7136 13.5536 73.2938 13.7866 72.9661 14.1237C72.6384 14.4608 72.4172 14.8871 72.3303 15.3492C72.2434 15.8114 72.2946 16.2889 72.4775 16.7221C72.6604 17.1553 72.9669 17.525 73.3586 17.7849C73.7504 18.0448 74.21 18.1833 74.68 18.1833C75.0019 18.1919 75.3221 18.1337 75.6204 18.0123C75.9187 17.8909 76.1886 17.709 76.4131 17.4781C76.6376 17.2472 76.8119 16.9722 76.9249 16.6705C77.0379 16.3688 77.0872 16.047 77.0697 15.7253Z" fill="#1D2130"/>
<path d="M81.6402 7.74211C81.6402 7.37204 81.7499 7.01029 81.9554 6.70259C82.1609 6.39489 82.4529 6.15506 82.7947 6.01344C83.1364 5.87182 83.5124 5.83477 83.8752 5.90696C84.238 5.97916 84.5712 6.15737 84.8328 6.41905C85.0943 6.68072 85.2724 7.01412 85.3446 7.37708C85.4168 7.74003 85.3797 8.11625 85.2382 8.45815C85.0966 8.80005 84.8569 9.09227 84.5494 9.29787C84.2418 9.50347 83.8802 9.61321 83.5103 9.61321C83.0159 9.60829 82.543 9.40958 82.1934 9.05974C81.8437 8.7099 81.6451 8.23683 81.6402 7.74211ZM81.955 10.5278H85.073V20.9228H81.9508L81.955 10.5278Z" fill="#1D2130"/>
<path d="M98.5317 15.7253C98.5677 16.4122 98.4676 17.0996 98.2372 17.7478C98.0068 18.3959 97.6506 18.9921 97.1891 19.5021C96.7275 20.012 96.1698 20.4257 95.548 20.7192C94.9261 21.0128 94.2524 21.1804 93.5655 21.2126C92.9879 21.2441 92.4105 21.1466 91.8752 20.9272C91.3399 20.7079 90.8601 20.372 90.4706 19.9442V25.0797H87.3536V10.5278H90.4706V11.5043C90.8603 11.0767 91.3401 10.7411 91.8754 10.5219C92.4107 10.3028 92.988 10.2054 93.5655 10.2369C94.2525 10.2689 94.9264 10.4365 95.5484 10.7301C96.1704 11.0236 96.7282 11.4374 97.1898 11.9475C97.6513 12.4575 98.0075 13.0539 98.2378 13.7023C98.4681 14.3506 98.568 15.0381 98.5317 15.7253ZM95.4147 15.7253C95.4025 15.2388 95.2472 14.7667 94.9682 14.3681C94.6891 13.9695 94.2988 13.662 93.846 13.4843C93.3932 13.3066 92.898 13.2664 92.4225 13.3688C91.947 13.4712 91.5122 13.7117 91.1727 14.0601C90.8331 14.4085 90.6037 14.8494 90.5134 15.3276C90.423 15.8057 90.4756 16.3 90.6646 16.7484C90.8536 17.1968 91.1705 17.5795 91.5758 17.8485C91.9811 18.1176 92.4568 18.2611 92.9432 18.261C93.2771 18.2759 93.6104 18.22 93.9212 18.0969C94.232 17.9739 94.5133 17.7865 94.7467 17.5471C94.9801 17.3076 95.1602 17.0216 95.2753 16.7076C95.3905 16.3936 95.438 16.0589 95.4147 15.7253Z" fill="#1D2130"/>
<path d="M108.15 17.8032C108.15 20.1941 106.073 21.2126 103.829 21.2126C102.923 21.2947 102.012 21.1029 101.216 20.6619C100.42 20.2209 99.7736 19.551 99.3618 18.7388L102.062 17.2005C102.171 17.576 102.406 17.9025 102.727 18.1257C103.048 18.3489 103.435 18.4552 103.825 18.4269C104.572 18.4269 104.947 18.198 104.947 17.7833C104.947 16.6388 99.8351 17.2425 99.8351 13.6463C99.8351 11.3793 101.747 10.2369 103.908 10.2369C104.72 10.2112 105.525 10.404 106.237 10.7951C106.95 11.1863 107.544 11.7615 107.959 12.4608L105.3 13.8951C105.183 13.6229 104.989 13.3909 104.742 13.2283C104.494 13.0657 104.204 12.9795 103.908 12.9806C103.368 12.9806 103.035 13.1906 103.035 13.5623C103.039 14.7477 108.15 13.9571 108.15 17.8032Z" fill="#1D2130"/>
<path d="M119.536 10.5278V20.9228H116.419V19.9452C116.059 20.3766 115.603 20.7165 115.087 20.937C114.57 21.1574 114.009 21.2523 113.449 21.2136C111.35 21.2136 109.566 19.7174 109.566 16.9086V10.5278H112.683V16.4519C112.657 16.6995 112.685 16.9497 112.765 17.1853C112.846 17.4209 112.977 17.6361 113.149 17.816C113.321 17.9959 113.53 18.1361 113.761 18.2269C113.993 18.3178 114.242 18.357 114.49 18.3419C115.633 18.3419 116.422 17.6772 116.422 16.2009V10.5309L119.536 10.5278Z" fill="#1D2130"/>
<path d="M137.409 14.5399V20.9218H134.292V14.8097C134.292 13.7702 133.793 13.1056 132.796 13.1056C131.757 13.1056 131.175 13.8332 131.175 15.0596V20.9218H128.059V14.8097C128.059 13.7702 127.56 13.1056 126.562 13.1056C125.523 13.1056 124.942 13.8332 124.942 15.0596V20.9218H121.825V10.5268H124.942V11.4823C125.265 11.0584 125.689 10.7222 126.176 10.5045C126.662 10.2868 127.195 10.1944 127.726 10.2359C128.26 10.2098 128.791 10.3224 129.268 10.5627C129.744 10.8031 130.151 11.1629 130.448 11.6072C130.793 11.1424 131.25 10.7728 131.777 10.533C132.304 10.2932 132.883 10.191 133.461 10.2359C135.846 10.237 137.409 11.9411 137.409 14.5399Z" fill="#1D2130"/>
<path d="M140.045 10.4637C141.323 10.4637 142.358 9.42765 142.358 8.14955C142.358 6.87145 141.323 5.83535 140.045 5.83535C138.768 5.83535 137.732 6.87145 137.732 8.14955C137.732 9.42765 138.768 10.4637 140.045 10.4637Z" fill="#1D2130"/>
</g>
</svg>
