<svg xmlns="http://www.w3.org/2000/svg" width="20" height="20" viewBox="0 0 20 20" fill="none"><g clip-path="url(#clip0_1549_1136)"><path d="M10 0C4.48578 0 0 4.48578 0 10C0 15.5142 4.48578 20 10 20C15.5142 20 20 15.5142 20 10C20 4.48578 15.5142 0 10 0Z" fill="#F44336"></path><path d="M13.6825 12.504C14.0083 12.8299 14.0083 13.3565 13.6825 13.6824C13.52 13.8449 13.3067 13.9266 13.0933 13.9266C12.8799 13.9266 12.6666 13.8449 12.5041 13.6824L9.99999 11.1782L7.49587 13.6824C7.33337 13.8449 7.12005 13.9266 6.90673 13.9266C6.69326 13.9266 6.47994 13.8449 6.31744 13.6824C5.99166 13.3565 5.99166 12.8299 6.31744 12.504L8.82171 9.99989L6.31744 7.49577C5.99166 7.16984 5.99166 6.64326 6.31744 6.31733C6.64336 5.99155 7.16994 5.99155 7.49587 6.31733L9.99999 8.8216L12.5041 6.31733C12.83 5.99155 13.3566 5.99155 13.6825 6.31733C14.0083 6.64326 14.0083 7.16984 13.6825 7.49577L11.1783 9.99989L13.6825 12.504Z" fill="#FAFAFA"></path></g><defs><clipPath id="clip0_1549_1136"><rect width="20" height="20" fill="white"></rect></clipPath></defs></svg>